<?xml version="1.0" encoding="UTF-8" standalone="no"?>
<!-- Created with Inkscape (http://www.inkscape.org/) -->

<svg
   width="512"
   height="512"
   viewBox="0 0 512 512"
   version="1.1"
   id="svg1"
   inkscape:version="1.4 (86a8ad7, 2024-10-11)"
   sodipodi:docname="Rukn AL Dyafa - Combination Mark 512x512 - Copy.svg"
   xmlns:inkscape="http://www.inkscape.org/namespaces/inkscape"
   xmlns:sodipodi="http://sodipodi.sourceforge.net/DTD/sodipodi-0.dtd"
   xmlns:xlink="http://www.w3.org/1999/xlink"
   xmlns="http://www.w3.org/2000/svg"
   xmlns:svg="http://www.w3.org/2000/svg">
  <sodipodi:namedview
     id="namedview1"
     pagecolor="#ffffff"
     bordercolor="#000000"
     borderopacity="0.25"
     inkscape:showpageshadow="2"
     inkscape:pageopacity="0.0"
     inkscape:pagecheckerboard="0"
     inkscape:deskcolor="#d1d1d1"
     inkscape:document-units="px"
     inkscape:zoom="1.5371094"
     inkscape:cx="256"
     inkscape:cy="191.59339"
     inkscape:window-width="1920"
     inkscape:window-height="1009"
     inkscape:window-x="-8"
     inkscape:window-y="-8"
     inkscape:window-maximized="1"
     inkscape:current-layer="layer1" />
  <defs
     id="defs1">
    <linearGradient
       id="linearGradient9"
       inkscape:collect="always"
       gradientTransform="matrix(6.0403938,0,0,1.3379726,0.14395996,0.14039168)"
       x1="13.799708"
       y1="262.96728"
       x2="74.63236"
       y2="262.96728"
       gradientUnits="userSpaceOnUse">
      <stop
         style="stop-color:#ebc464;stop-opacity:1;"
         offset="0"
         id="stop7" />
      <stop
         style="stop-color:#dfad5b;stop-opacity:1;"
         offset="0.5"
         id="stop8" />
      <stop
         style="stop-color:#ca913f;stop-opacity:1;"
         offset="1"
         id="stop9" />
    </linearGradient>
    <linearGradient
       inkscape:collect="always"
       xlink:href="#linearGradient5"
       id="linearGradient33"
       x1="57.900997"
       y1="112.72994"
       x2="144.13933"
       y2="112.72994"
       gradientUnits="userSpaceOnUse"
       gradientTransform="matrix(1.5003322,0,0,1.5003323,-57.616175,-31.053554)" />
    <linearGradient
       id="linearGradient5"
       inkscape:collect="always">
      <stop
         style="stop-color:#eac263;stop-opacity:1;"
         offset="0"
         id="stop33" />
      <stop
         style="stop-color:#d5a04e;stop-opacity:1;"
         offset="1"
         id="stop34" />
    </linearGradient>
    <pattern
       inkscape:collect="always"
       patternUnits="userSpaceOnUse"
       width="372"
       height="398"
       patternTransform="translate(0,0) scale(0.2,0.2)"
       preserveAspectRatio="xMidYMid"
       id="Camouflage"
       inkscape:stockid="Camouflage"
       inkscape:isstock="true"
       inkscape:label="Camouflage">
      <g
         id="g3410"
         transform="translate(-89,-270)">
        <path
           style="fill:#344a33;"
           d="M 89,270 L 480,270 L 480,680 L 89,680 L 89,270 z"
           id="rect5504" />
        <g
           style="fill:#463a28;fill-opacity:1"
           id="g5707"
           transform="matrix(0.5,0,0,0.5,161.785,352.005)">
          <path
             style="fill:#463a28"
             d="M 600,178.31 C 560.97,190.236 519.231,189.9 479.23,183.581 C 455.918,186.853 438.62,213.05 412.95,203.143 C 384.723,200.460 356.541,204.918 328.406,206.68 C 309.806,190.517 275.53,228.018 306.603,234.354 C 327.210,236.132 348.992,229.341 368.62,238.962 C 383.037,247.894 390.808,258.693 408.529,259.350 C 420.656,274.332 386.675,270.062 378.494,268.502 C 357.207,270.434 385.060,292.401 395.894,290.848 C 424.579,294.517 449.809,275.993 477.405,272.721 C 495.590,279.799 463.282,296.428 453.105,296.250 C 438.778,294.524 418.703,307.58 439.246,316.579 C 457.033,324.061 485.201,315.67 493.525,338.098 C 485.057,361.173 449.064,351.396 431.337,343.369 C 413.333,329.691 390.442,339.22 375.767,353.012 C 362.304,365.825 347.051,376.832 329.963,383.669 C 312.790,403.576 345.997,415.972 357.265,402.870 C 362.161,424.280 326.751,414.476 324.658,431.463 C 341.974,441.266 373.473,430.487 380.502,454.940 C 378.508,479.296 348.435,488.15 329.175,477.225 C 300.598,468.454 269.938,460.273 240.214,468.494 C 224.261,471.401 206.547,476.887 191.786,467.162 C 172.250,457.596 155.905,442.99 138,430.8 C 124.824,404.143 96.097,387.060 66.775,384.893 C 46.983,374.555 15.716,362.529 -2.282,380.956 C -5.629,405.028 31.603,403.219 46.194,414.656 C 67.224,420.952 69.502,454.051 42.915,450.37 C 12.992,451.162 -21.439,452.420 -45.709,431.774 C -57.746,419.467 -61.574,401.735 -71.239,387.695 C -88.819,367.483 -61.456,351.684 -42.526,355.292 C -16.517,355.025 -17.113,321.144 -10.032,303.64 C -25.652,288.652 -40.742,321.498 -56.006,324.403 C -78.301,322.326 -83.577,292.543 -82.521,274.145 C -80.525,250.62 -107.323,242.235 -114.751,221.643 C -125.662,204.223 -139.460,220.004 -131.811,234.932 C -120.793,259.937 -133.284,286.858 -127.928,312.715 C -124.867,334.367 -91.797,344.018 -99.659,368.317 C -111.945,383.164 -125.622,410.580 -150,399.781 C -150,424. -150,448.718 -150,473.18 C -125.302,478.553 -132.230,508.537 -136.682,526.118 C -138.435,548.920 -115.870,560.382 -97.390,566.074 C -79.986,572.020 -63.202,582.322 -55.644,599.777 C -37.724,622.346 -5.898,618.235 19.446,623.426 C 38.438,629.090 57.258,637.088 77.557,634.888 C 128.370,635.236 179.185,634.855 230,635 C 205.840,620.831 176.501,628.467 150.735,620.057 C 174.602,613.037 202.175,628.036 223.812,611.93 C 248.788,599.491 208.494,588.826 196.470,593.890 C 174.716,597.94 151.747,602.937 130.463,593.724 C 109.734,583.381 90.847,567.89 76.969,549.340 C 58.947,527.803 79.814,500.291 105.420,509.858 C 127.255,513.818 153.171,511.947 169.881,529.057 C 154.102,533.042 132.701,517.975 116.702,530.217 C 97.280,546.038 118.157,574.262 136.675,579.629 C 161.105,588.782 187.823,576.764 211.865,587.810 C 236.001,599.167 265.115,595.524 286.270,579.468 C 302.270,568.417 341.076,576.817 350.421,572.420 C 333.300,581.50 328.493,610.228 355.054,600.493 C 381.612,594.843 406.638,583.784 433.093,577. C 452.413,583.091 483.371,598.36 495.980,574.90 C 501.833,555.719 521.524,550.721 534.710,538.651 C 552.058,518.928 517.047,523.810 505.635,523.333 C 486.286,522.775 466.995,521.032 447.75,519.031 C 462.818,495.215 494.296,493.760 519.567,495.617 C 546.589,483.008 582.396,482.543 600,455 C 598.131,432.490 603.727,402.981 597.220,384.820 C 567.631,377.721 602.659,349.517 600,332.297 C 600,280.969 600,229.640 600,178.31 z"
             id="path7788" />
          <path
             style="fill:#463a28;"
             d="M -74.218,518.06 C -97.532,526.845 -124.316,516.128 -145.992,521.806 C -157.072,543.338 -145.463,569.615 -149.820,593.10 C -151.229,611.617 -155.632,643.9 -127.319,634.913 C -97.561,634.560 -67.597,636.446 -37.975,633.489 C -24.011,634.582 -7.730,614.171 -30.230,612.945 C -58.089,611.719 -54.502,572.239 -26.809,574.076 C -3.761,572.761 19.404,568.607 38.632,555.215 C 54.406,535.664 16.639,537.46 5.606,542.32 C -14.881,542.187 -29.999,552.534 -44.080,565.88 C -59.331,563.486 -73.922,550.934 -92.005,556.885 C -113.452,558.010 -95.924,533.254 -81.630,540.383 C -67.556,534.655 -37.894,553.619 -34.982,532.886 C -41.444,521.257 -61.503,518.496 -74.218,518.06 z"
             id="path5796" />
          <path
             style="fill:#463a28;"
             d="M -77.873,101.507 C -61.245,117.641 -35.033,101.775 -18.966,106.888 C -35.237,127.785 -1.393,135.40 13.663,126.668 C 34.894,135.65 46.799,108.962 66.603,111.441 C 88.453,118.352 111.506,110.511 133.557,110.931 C 146.552,107.752 177.049,127.459 155.197,134.646 C 137.041,134.209 117.488,127.557 101.063,135.571 C 85.282,153.172 113.748,148.425 123.936,148.060 C 140.630,156.251 158.465,163.670 170.942,144.758 C 186.614,132.311 207.878,136.555 226.074,130.774 C 253.269,131.014 234.168,157.849 216.711,157.163 C 198.764,167.882 177.594,162.934 158.941,169.746 C 132.016,184.951 160.562,207.39 178.167,209.892 C 179.357,231.237 144.387,225.712 129.351,230.21 C 112.394,234.817 82.211,217.187 76.263,240.878 C 74.364,262.691 119.457,261.719 96.662,283.479 C 88.080,299.449 50.228,285.837 65.631,310.924 C 75.750,333.571 38.484,313.147 25.461,318.338 C 13.084,327.758 -11.260,313.710 3.757,300.453 C 11.434,299.004 32.809,302.772 26.839,288.875 C 10.009,286.651 -14.890,301.330 -25.642,281.730 C -18.642,263.900 -43.268,246.97 -27.986,233.262 C -22.287,229.756 -48.133,238.298 -42.827,222.371 C -36.804,205.576 -39.335,190.426 -41.601,174.046 C -34.701,169.194 -17.617,153.507 -37.551,156.061 C -47.733,158.3 -62.292,150.373 -69.392,151.239 C -69.143,139.703 -75.979,120.783 -89.516,134.314 C -114.483,130.598 -92.908,101.2 -77.873,101.507 z"
             id="path7734" />
          <path
             style="fill:#463a28;"
             d="M 119.843,-1 C 116.556,-137.634 82.136,-140.81 64.585,-150.953 C 42.657,-148.527 33.487,-122.141 11.296,-119.480 C -14.956,-116.940 8.724,-83.186 -17.272,-79.091 C -56.271,-65.964 -100.879,-67.422 -135.573,-42.601 C -153.881,-26.024 -143.982,0.661 -141.751,21.550 C -139.412,45.169 -104.870,34.373 -105.628,58.104 C -99.882,87.281 -68.317,57.858 -53.203,52.771 C -31.034,41.210 -11.896,68.353 10.154,60.876 C 22.041,48.348 39.710,45.854 56.278,45.240 C 74.791,44.990 88.864,30.990 107.722,32.386 C 139.310,29.879 171.071,32.348 202.605,30.205 C 222.380,27.043 242.209,24.338 262.163,22.913 C 283.344,19.446 304.971,9.012 326.555,15.928 C 343.027,36.999 366.296,17.733 374.887,0.832 C 395.270,-11.985 420.435,-10.365 443.402,-13.363 C 463.417,-11.221 493.073,-9.726 498.820,-34.799 C 499.965,-55.190 474.411,-61.506 458.112,-61.252 C 432.280,-55.690 406.923,-44.314 379.859,-46.245 C 366.366,-42.028 332.931,-23.175 332.146,-47.095 C 340.849,-53.140 360.005,-71.805 336.974,-71.342 C 312.874,-71.978 288.314,-52.549 265.031,-66.281 C 256.299,-89.716 287.554,-98.793 305.299,-98.953 C 330.803,-102.261 356.292,-97.825 381.048,-92.039 C 398.272,-93.695 428.282,-82.086 438.577,-95.697 C 432.712,-113.674 417.972,-119.830 401.585,-126.651 C 390.598,-136.203 361.634,-122.216 362.391,-146.599 C 376.520,-165.216 341.318,-156.437 331.042,-152.221 C 315.827,-145.266 299.206,-144.548 283.122,-142.637 C 259.176,-143.957 249.187,-174.257 223.052,-1 C 188.649,-1 154.246,-1 119.843,-1 z M 107.125,-108.5 C 128.383,-98.019 149.698,-87.606 171.601,-78.527 C 189.186,-73.970 221.496,-93.304 228.634,-72.459 C 215.601,-56.322 190.578,-71.098 172.445,-67.078 C 149.711,-65.477 123.370,-58.850 104.074,-75.051 C 92.331,-81.647 51.714,-77.224 65.846,-98.560 C 79.069,-104.077 95.620,-98.359 107.125,-108.5 z"
             id="rect8003" />
          <path
             style="fill:#463a28;"
             d="M -150,-1 C -150,-134.446 -150,-103.893 -150,-73.340 C -140.617,-68.983 -119.386,-66.831 -133.939,-81.861 C -146.584,-107.449 -107.838,-92.756 -99.971,-110.812 C -80.328,-132.78 -125.557,-128.479 -121.460,-151.42 C -117.123,-175.278 -85.779,-157.045 -69.257,-162.198 C -60.864,-162.377 -40.952,-165.987 -60.241,-165.042 C -90.159,-164.916 -120.080,-165.046 -150,-1 z"
             id="path5784" />
          <path
             style="fill:#463a28;fill-opacity:1;fill-rule:evenodd;stroke:none;stroke-width:2;stroke-linecap:round;stroke-linejoin:round;marker:none;marker-start:none;marker-mid:none;marker-end:none;stroke-miterlimit:4;stroke-dasharray:none;stroke-dashoffset:0;stroke-opacity:1;visibility:visible;display:inline;overflow:visible;enable-background:accumulate"
             d="M 473.656,509.156 C 452.234,504.277 441.387,551.97 468.796,538.902 C 490.088,528.916 469.817,571.564 493.359,560.897 C 504.024,567.417 538.462,558.658 517.053,575.909 C 503.234,582.520 508.456,593.847 514.496,602.529 C 510.232,616.211 501.017,641.753 526.025,635 C 550.683,635 575.341,635 600,635 C 600,598.177 600,561.354 600,524.531 C 583.610,540.604 555.550,533.912 536.555,537.104 C 524.205,532.170 531.392,516.638 531.498,513.096 C 510.741,511.891 492.699,524.018 473.656,509.156 z"
             id="path5798" />
          <path
             style="fill:#463a28;"
             d="M 510,-1 C 507.765,-149.145 537.198,-169.760 521.773,-156.735 C 509.530,-141.80 534.936,-126.48 526.170,-110.745 C 535.759,-86.341 574.941,-114.840 580.160,-97.956 C 570.192,-90.967 533.398,-90.853 556.435,-73.165 C 570.230,-73.551 587.408,-72.641 598.802,-76.813 C 603.207,-95.887 597.254,-116.108 600.019,-135.693 C 603.625,-153.054 599.552,-171.961 578.115,-1 C 555.410,-1 532.705,-1 510,-1 z"
             id="path5800" />
          <path
             style="fill:#463a28;"
             d="M 297.218,609.281 C 273.460,616.16 245.099,607.606 224.733,624.859 C 213.115,642.376 249.131,636.399 258.093,631.305 C 277.004,620.102 298.754,616.212 320.476,617.711 C 335.240,616.788 337.511,610.244 321.564,611.424 C 313.436,610.909 305.261,610.666 297.218,609.281 z"
             id="path5822" />
          <path
             style="fill:#463a28;"
             d="M -126.656,154.81 C -137.651,170.980 -158.192,184.029 -150,206.627 C -150,252.751 -150,298.875 -150,345 C -142.652,328.6 -127.352,305.181 -107.988,321.931 C -82.305,327.845 -77.109,291.184 -85.353,274.07 C -96.521,258.54 -116.604,286.214 -119.612,262.303 C -129.445,242.23 -130.482,220.834 -121.032,200.456 C -119.582,186.121 -97.174,152.998 -126.656,154.81 z M -150,385 C -150,410.083 -150,435.166 -150,460. C -135.228,443.436 -139.871,419.809 -133.972,400.025 C -131.703,390.185 -140.503,382.296 -150,385 z"
             id="path5872" />
        </g>
        <g
           style="fill:#758949;fill-opacity:1"
           id="g5530"
           transform="matrix(0.5,0,0,0.5,161.785,352.005)">
          <path
             style="fill:#758949;"
             d="M -19.092,152.663 C -0.336,165.154 -44.495,173.82 -22.905,182.657 C -18.543,203.392 -55.957,201.559 -44.511,225.005 C -39.954,238.057 -60.169,248.53 -56.909,229.876 C -54.108,217.223 -58.600,202.326 -73.928,208.118 C -89.423,197.340 -51.695,192.141 -64.568,177.550 C -70.646,150.414 -39.259,153.91 -22.517,154.630 L -19.092,152.663 L -19.092,152.663 z"
             id="path7689" />
          <path
             style="fill:#758949;"
             d="M 233.782,202.069 C 212.165,215.215 251.363,241.045 228.203,248.174 C 216.084,262.584 197.512,272.265 181.504,258.722 C 166.306,253.675 158.151,286.797 173.605,270.658 C 187.546,263.531 197.630,287.677 178.147,284.195 C 152.858,293.417 187.317,304.915 198.171,295.591 C 222.204,290.740 214.910,317.192 210.320,329.770 C 226.071,327.954 237.467,305.507 255.759,301.380 C 272.512,302.120 241.691,291.452 238.658,291.396 C 231.708,281.968 211.890,280.530 228.799,270.141 C 241.557,253.974 263.959,244.392 283.670,248.937 C 307.010,259.22 306.336,290.76 287.321,305.101 C 275.751,324.097 301.617,317.866 306.139,305.330 C 313.269,295.780 319.991,293.767 321.832,307.153 C 328.474,315.898 343.140,299.239 334.218,313.064 C 343.564,330.863 365.600,294.385 355.932,281.417 C 335.827,263.687 377.040,269.185 373.147,254.758 C 355.214,239.308 329.890,254.377 312.623,257.325 C 303.211,240.040 290.434,225.805 269.487,228.434 C 253.320,225.850 240.032,216.376 233.782,202.069 z"
             id="path7371" />
          <path
             style="fill:#758949;"
             d="M -130,-165 C -146.497,-154.421 -111.929,-144.56 -116.154,-130.844 C -106.837,-127.738 -105.619,-157.368 -93.415,-141.701 C -92.028,-125.613 -124.299,-103.209 -96.213,-92.855 C -71.406,-90.775 -92.001,-126.698 -70.547,-124.698 C -48.241,-125.914 -96.932,-142.021 -76.377,-155.530 C -56.893,-158.324 -51.410,-131.611 -35.806,-126.653 C -16.916,-131.918 -55.218,-163.601 -27.063,-154.425 C -2.890,-146.007 17.057,-129.190 39.176,-116.894 C 40.828,-101.311 15.033,-93.682 13.535,-75.677 C -0.378,-55.259 31.471,-32.696 45.974,-49.748 C 60.624,-69.816 14.547,-63.868 33.181,-81.896 C 45.279,-99.115 64.649,-103.932 83.254,-110.523 C 95.273,-125.338 123.044,-137.032 134.741,-115.232 C 132.972,-91.529 161.875,-99.012 158.794,-119.174 C 159.876,-142.26 119.587,-129.296 123.977,-151.367 C 142.397,-170.599 102.674,-166.12 101.607,-163.014 C 114.787,-137.921 71.243,-145.883 57.367,-143.840 C 36.664,-144.791 -2.221,-141.174 -8.202,-163.7 C 10.582,-166.931 -21.788,-163.9 -28.437,-165 C -62.291,-165 -96.145,-165 -130,-165 z"
             id="path8024" />
          <path
             style="fill:#758949;"
             d="M 80.180,-53.140 C 56.900,-52.662 89.138,-31.342 99.278,-34.180 C 122.695,-29.031 145.247,-45.948 168.535,-38.850 C 186.050,-14.683 148.370,-10.383 133.396,-6.339 C 116.031,0.591 112.889,23.829 134.592,24.996 C 135.046,35.775 104.864,26.141 93.677,32.376 C 38.303,40.303 -18.369,41.542 -73.682,32.866 C -97.562,31.831 -123.660,45.595 -130.480,69.639 C -113.540,88.374 -88.665,64.747 -69.062,62.697 C -43.559,53.796 -17.618,64.805 4.823,76.600 C 24.493,85.249 46.587,90.598 68.023,86.259 C 89.548,90.484 106.942,57.041 127.416,72.700 C 123.301,103.634 177.876,71.627 171.783,106.819 C 170.418,134.092 132.041,130.404 126.886,154.059 C 126.564,179.769 158.650,187.075 178.860,186.680 C 198.986,179.982 183.582,152.17 203.066,141.92 C 215.750,130.298 231.005,120.20 247.654,115.737 C 269.912,113.679 284.047,143.49 306.963,134.030 C 318.786,136.867 329.086,132.320 316.097,122.62 C 303.680,100.913 279.415,95.542 257.066,92.728 C 243.720,93.656 207.006,77.408 234.473,68.069 C 256.968,62.338 277.178,77.229 296.535,85.874 C 321.830,88.892 310.681,57.703 308.688,43.767 C 299.163,20.644 271.759,28.617 252.560,29.583 C 242.307,32.841 223.412,25.117 240.438,17.169 C 247.469,-3.014 201.522,6.149 215.980,-13.696 C 232.971,-27.984 257.284,-32.22 278.739,-28.691 C 295.008,-22.015 253.843,-1.598 280.725,-3.239 C 303.384,-7.501 326.577,-10.184 349.306,-5.881 C 363.001,-4.568 369.729,-23.494 351.428,-21.061 C 329.114,-15.869 301.776,-7.311 287.447,-31.455 C 266.756,-42.578 241.953,-29.973 220.607,-38.314 C 203.587,-45.622 230.866,-69.353 208.095,-60.375 C 188.176,-54.085 167.423,-55.103 146.981,-57.487 C 128.546,-59.556 109.670,-59.219 91.876,-53.596 C 88.021,-52.967 84.073,-52.601 80.180,-53.140 z"
             id="rect5572" />
          <path
             style="fill:#758949;"
             d="M 512.876,-62.711 C 540.679,-53.738 506.599,-23.828 488.541,-31.107 C 464.951,-28.723 440.378,-29.361 417.860,-24.858 C 399.324,-29.592 415.081,-41.282 426.286,-35.644 C 447.544,-37.616 468.492,-43.816 488.623,-50.619 C 496.805,-54.453 504.426,-59.442 512.876,-62.711 z"
             id="path5592" />
          <path
             style="fill:#758949;"
             d="M 451.001,-1.461 C 468.726,-0.840 461.653,26.563 466.651,33.645 C 440.211,40.460 480.446,55.015 478.446,33.704 C 469.630,18.486 488.076,21.671 488.649,34.861 C 501.909,41.444 521.233,44.311 536.671,53.170 C 549.653,68.129 520.183,89.230 512.178,103.759 C 496.897,110.255 479.090,134.667 505.043,140.112 C 513.160,142.650 534.585,164.06 513.400,153.396 C 493.096,147.189 475.071,131.345 453.169,133.204 C 436.762,138.61 398.134,129.671 423.385,110.110 C 430.946,105.76 458.160,91.780 436.083,89.728 C 420.126,97.581 403.326,80.553 423.550,71.954 C 434.306,69.172 470.866,67.501 454.313,50.572 C 445.784,48.466 418.500,43.825 441.341,38.155 C 452.561,26.652 419.249,0.098 451.001,-1.461 z"
             id="path5007" />
          <path
             style="fill:#758949;"
             d="M 120.750,286.171 C 95.028,279.495 71.769,297.18 51.206,309.947 C 35.800,326.947 7.625,339.422 -8.827,316.962 C -29.141,299.556 -58.821,323.637 -39.107,345.140 C -28.354,366.769 -3.695,371.322 13.216,386.158 C 29.069,397.511 48.529,384.460 65.904,391.702 C 92.546,397.365 109.087,423.019 114.132,448.215 C 116.592,470.547 134.874,469.710 150.046,460.218 C 165.384,461.610 176.739,476.346 192.194,480.406 C 206.600,486.078 225.071,491.646 239.137,483.120 C 252.957,467.143 198.093,455.840 228.878,455.984 C 250.782,455.775 272.424,461.84 294.358,459.633 C 310.460,437.525 276.753,415.776 257.095,428.803 C 235.117,436.219 209.734,435.850 191.901,419.574 C 174.240,414.639 157.613,394.55 180.200,385.132 C 175.730,357.879 144.842,376.758 127.838,370.299 C 110.594,367.219 75.422,347.013 104.391,332.559 C 113.581,322.981 140.066,349.011 131.848,326.882 C 127.762,310.403 94.619,329.441 100.705,311.855 C 112.458,298.604 137.616,328.81 141.168,310.94 C 136.582,303.309 104.502,300.13 116.585,292.76 C 121.002,292.822 128.260,290.432 120.750,286.171 z"
             id="path7658" />
          <path
             style="fill:#758949;"
             d="M 562.095,205.850 C 573.784,200.524 605.253,210.77 580.048,219.99 C 562.632,226.276 531.034,224.833 522.783,236.940 C 532.805,257.104 504.185,266.119 490.345,257.813 C 481.847,265.491 457.320,273.067 467.437,252.59 C 479.464,245.02 513.436,239.577 490.560,222.884 C 502.985,210.705 523.137,218.586 538.101,210.887 C 546.004,208.804 553.971,206.857 562.095,205.850 z"
             id="path7828" />
          <path
             style="fill:#758949;"
             d="M 473.938,414.663 C 501.010,421.925 445.051,444.214 469.783,436.782 C 481.931,439.690 488.672,451.514 500.505,440.17 C 519.854,432.389 541.157,440.217 558.634,427.959 C 570.709,426.51 567.747,443.33 574.535,449.934 C 569.059,472.078 541.022,468.421 523.535,472.904 C 497.113,478.137 470.403,482.785 444.297,489.084 C 428.588,496. 436.671,519.826 453.422,508.08 C 475.113,501.799 497.856,499.731 518.201,510.654 C 533.977,515.25 572.554,494.800 569.848,521.948 C 552.927,541.235 527.667,522.388 506.503,526.540 C 492.944,527.705 455.888,520.852 470.485,545.276 C 476.067,565.641 437.601,563.860 423.021,561.455 C 411.298,558.316 422.445,523.731 396.859,534.222 C 373.444,536.237 348.263,539.128 326.518,528. C 313.708,506.171 352.117,512.546 357.533,513.494 C 372.669,497.037 398.984,509.528 416.148,496.495 C 428.843,482.992 399.882,459.606 425.604,454.270 C 438.106,452.098 429.349,446.715 429.187,442.468 C 439.381,428.038 455.947,416.048 473.938,414.663 z"
             id="path7887" />
          <path
             style="fill:#758949;"
             d="M 275.179,501.892 C 292.410,488.933 311.668,520.896 286.513,524.008 C 262.770,525.078 239.559,532.63 216.363,531.992 C 197.448,538.067 173.981,510.852 200.541,504.633 C 217.368,497.768 234.994,502.859 252.080,504.591 C 259.858,504.647 267.578,503.437 275.179,501.892 z"
             id="path5163" />
          <path
             style="fill:#758949;"
             d="M 90.907,421.850 C 115.097,434.205 79.915,449.140 75.308,461.933 C 76.046,476.838 111.893,493.205 88.037,505.814 C 65.591,511.710 67.119,539.381 74.391,554.828 C 68.793,571.202 60.646,583.138 74.985,576.198 C 90.053,583.430 77.355,599.522 69.679,599.936 C 78.245,606.26 82.148,640.738 58.958,631.437 C 43.811,614.828 51.809,598.97 38.187,581.490 C 15.582,576.927 11.083,531.721 38.271,531.790 C 51.983,522.087 23.004,527.286 25.987,516.22 C 14.801,507.378 -24.167,523.467 -13.648,497.965 C 4.844,484.197 29.168,497.071 49.732,490.9 C 72.736,477.877 64.285,445.583 79.401,426.719 C 82.216,423.403 86.609,421.655 90.907,421.850 z"
             id="path5341" />
          <path
             style="fill:#758949;"
             d="M -79.875,564.18 C -85.413,581.540 -46.054,608.532 -78.955,614.355 C -97.039,617.317 -117.370,620.221 -130,635 C -82.896,634.678 -35.759,635.66 11.323,634.460 C 29.818,631.873 32.140,603.452 9.861,611.038 C -9.013,604.237 -29.929,628.832 -44.497,610.055 C -56.171,594.637 -68.690,579.512 -79.875,564.18 z M 150,603.127 C 144.337,627.035 108.911,611.083 99.920,630.969 C 117.081,647.786 135.136,622.453 152.770,622.460 C 175.979,626.833 198.486,638.54 222.864,633.699 C 235.379,636.403 262.364,617.725 238.087,614.456 C 217.835,612.636 197.972,611.038 177.764,613.750 C 164.751,616.281 153.083,579.323 144.860,597.480 C 146.791,599.185 148.550,600.989 150,603.127 z"
             id="path5363" />
          <path
             style="opacity:1;fill:#758949;"
             d="M 540.843,255.5 C 524.778,267.032 546.199,290.831 557.714,298.356 C 573.544,321.31 550.898,343.348 529.817,350.348 C 514.884,360.46 498.146,378.822 478.618,367.634 C 457.085,358.232 456.528,329.755 472.804,314.99 C 480.380,309.560 496.059,280.616 476.601,293.060 C 454.726,306.354 466.225,259.548 454.897,269.268 C 449.416,295.563 437.087,322.417 413.277,336.765 C 397.554,352.32 376.854,358.488 357.903,368.558 C 335.403,385.986 351.746,414.691 371.734,425.793 C 380.956,437.386 405.654,466.909 416.517,447.00 C 406.766,425.211 374.881,424.090 368.522,399.817 C 380.294,378.698 405.382,401.155 419.465,408.932 C 436.020,418.397 440.374,399.051 423.214,395.466 C 407.605,387.724 417.303,366.273 433.411,377.239 C 455.436,387.157 477.494,397.603 498.735,408.735 C 517.530,426.448 537.356,442.847 556.807,459.809 C 571.992,479.766 610.187,470.050 600.638,441.696 C 595.542,428.910 609.339,397.222 584.625,408.658 C 566.401,407.978 544.296,410.00 527.955,401.135 C 525.184,385.43 540.099,372.884 550.007,362.353 C 562.306,351.130 577.496,343.24 593.523,339.24 C 607.774,328.866 599.681,310.070 582.581,312.480 C 568.270,296.309 567.300,269.826 548.224,257.375 C 545.919,256.285 543.411,255.53 540.843,255.5 z"
             id="rect7802" />
          <path
             style="opacity:1;fill:#758949;"
             d="M -94.406,299.06 C -112.304,303.291 -145.945,302.32 -155,322.5 C -155.824,347.833 -128.327,317.835 -114.937,319.205 C -86.634,311.946 -56.693,319.598 -30.861,331.769 C -10.525,320.979 -47.440,311.617 -56.852,308.219 C -68.863,303.53 -81.342,299.037 -94.406,299.06 z M -155,405 C -155.704,423.49 -155.581,450.965 -155.077,463.884 C -127.982,452.644 -103.146,452.013 -84.900,437.138 C -76.646,411.704 -111.267,402.906 -130.098,401.640 C -136.858,401.257 -143.835,402.0 -155,405 z"
             id="path6151" />
        </g>
        <g
           style="fill:#17181f;fill-opacity:1;"
           id="g5672"
           transform="matrix(0.5,0,0,0.5,161.785,352.052)">
          <path
             style="opacity:0.6;fill:#17181f;"
             d="M 44.470,84.288 C 42.091,86.145 43.127,87.588 44.470,84.288 z"
             id="path5621" />
          <path
             style="fill:#17181f;"
             d="M 435.313,39.975 C 437.069,40.076 435.818,39.307 435.313,39.975 z"
             id="path5005" />
          <path
             style="fill:#17181f;"
             d="M 569.376,220.569 C 571.946,219.7 568.522,218.329 569.376,220.569 z"
             id="path7844" />
          <path
             style="fill:#17181f;"
             d="M -40.779,446.382 L -40.561,446.382 L -40.779,446.382 L -40.779,446.382 z"
             id="path5285" />
          <path
             style="fill:#17181f;"
             d="M 417.375,581.8 C 398.238,581.952 380.983,586.234 363.105,590.959 C 345.113,599.35 386.040,605.875 363.224,611.210 C 343.557,611.47 359.752,626.180 370.685,619.529 C 386.174,614.371 400.008,607.479 416.337,607.208 C 422.333,590.876 379.920,607.349 399.568,591.529 C 402.112,588.623 427.042,589.396 417.375,581.8 z"
             id="path5703" />
          <path
             style="fill:#17181f;"
             d="M 355.75,406.93 C 345.563,426.00 359.119,445.641 379.079,449.548 C 393.821,459.642 403.065,489.476 378.326,492.93 C 364.364,500.197 346.707,507.293 332.940,495.498 C 312.881,487.077 321.290,464.152 317.027,448.902 C 308.642,458.480 307.855,480.428 304.438,495.173 C 296.137,513.389 275.074,521.187 264.685,538.074 C 258.726,552.710 249.924,565.688 244.872,580.692 C 243.891,598.635 249.491,617.083 244.252,634.905 C 271.077,640.679 252.795,609.001 258.218,595.085 C 263.563,569.722 282.664,597.31 269.918,608.247 C 252.700,621.883 294.199,644.002 290.428,630.909 C 274.423,617.495 289.749,597.368 280.918,580.774 C 270.535,561.572 289.093,546.569 306.823,545.81 C 313.962,540.53 322.801,529.558 316.024,545.185 C 308.605,559.668 323.185,573.127 322.772,550.686 C 328.963,526.89 339.400,578.581 350.155,564.257 C 348.082,555.731 331.634,532.831 349.913,546.99 C 358.984,556.440 371.463,549.012 358.273,539.421 C 349.754,522.001 376.915,513.411 391.297,515.025 C 404.986,509.113 425.639,502.079 427.100,484.595 C 421.416,461.503 450.427,457.184 466.518,462.311 C 490.519,463.933 514.039,456.772 537.138,451.289 C 551.669,448.932 576.006,418.961 546.684,423.721 C 527.187,414.422 511.907,442.330 489.895,433.585 C 459.885,432.463 430.621,456.076 401.087,441.566 C 382.700,434.482 371.333,417.65 355.75,406.93 z"
             id="path7926" />
          <path
             style="fill:#17181f;"
             d="M -26.717,185.819 C -4.009,189.708 -24.996,210.33 -34.568,217.511 C -39.374,239.736 -17.316,208.817 -8.795,211.183 C 7.990,223.443 -31.198,234.136 -20.724,250.752 C -10.009,262.063 7.054,278.131 -17.995,280.536 C -14.593,283.824 -4.163,280.203 -1.952,288.349 C 7.172,283.655 30.926,277.876 13.464,292.746 C -12.105,296.797 15.175,317.069 21.452,327.938 C 23.165,343.552 2.944,317.842 -4.293,317.437 C -28.648,311.364 -14.592,277.076 -41.598,277.185 C -50.194,267.248 -55.047,248.224 -57.829,234.093 C -45.571,221.697 -61.987,197.556 -39.529,192.225 C -36.326,188.081 -30.491,189.045 -26.717,185.819 z"
             id="path7716" />
          <path
             style="fill:#17181f;"
             d="M 55.876,52.194 C 78.421,57.603 31.912,89.563 53.025,80.097 C 71.395,82.048 64.699,116.828 55.896,127.423 C 36.265,131.554 36.368,155.472 19.776,162.6 C 15.135,173.292 -8.288,180.141 0.013,161.736 C -6.056,140.265 -28.842,169.336 -43.099,158.238 C -55.076,156.300 -73.653,174.818 -71.911,151.839 C -75.676,146.077 -74.836,122.54 -67.447,136.601 C -70.518,154.716 -56.847,142.723 -60.010,131.582 C -50.276,124.990 -58.894,159.068 -41.321,150.581 C -29.086,152.776 -5.023,148.485 -11.680,132.406 C 13.073,127.595 -28.953,103.292 -6.472,103.009 C -0.976,125.046 16.324,106.496 8.478,91.834 C 11.912,74.662 22.715,85.114 19.746,97.393 C 22.728,89.987 28.087,66.534 42.915,59.842 C 46.861,56.779 50.465,52.453 55.876,52.194 z"
             id="path5623" />
          <path
             style="fill:#17181f;"
             d="M 312.751,36.819 C 333.347,31.401 319.520,68.441 339.837,53.566 C 355.785,62.978 336.469,71.570 334.110,79.235 C 342.926,82.750 353.361,85.892 344.447,97.071 C 353.134,99.680 367.802,101.47 378.486,102.476 C 391.604,100.00 399.455,92.651 405.879,81.436 C 420.967,87.675 377.675,107.470 401.457,104.086 C 401.113,116.866 376.638,106.043 368.316,111.684 C 354.696,120.757 339.014,116.713 332.787,100.527 C 310.130,94.775 300.900,68.842 300.369,48.584 C 302.113,42.960 306.226,36.966 312.751,36.819 z"
             id="path5610" />
          <path
             style="fill:#17181f;"
             d="M 124.563,61.382 C 141.869,61.999 123.813,93.281 146.275,82.862 C 164.259,65.635 179.165,98.949 171.855,113.641 C 163.317,122.193 159.439,139.925 151.047,144.667 C 152.153,135.436 152.690,126.589 143.802,125.534 C 153.709,118.321 175.291,92.812 148.314,94.460 C 138.699,102.752 133.010,118.902 121.868,123.960 C 117.942,117.990 123.621,114.946 118.440,110.975 C 132.067,112.793 142.774,86.452 123.194,95.627 C 118.380,100.722 103.558,124.369 106.209,104.387 C 106.320,94.245 132.543,86.253 113.688,81.819 C 96.133,83.671 89.213,111.185 73.688,109.569 C 73.979,101.064 107.162,83.463 83.630,87.231 C 77.083,94.797 57.400,93.831 72.357,82.939 C 90.393,80.118 103.401,65.319 121.033,61.716 L 124.563,61.382 L 124.563,61.382 z"
             id="path7545" />
          <path
             style="fill:#17181f;"
             d="M 600,65 C 578.446,70.035 558.890,80.922 538.305,88.790 C 514.410,94.174 529.541,115.832 543.789,121.904 C 557.726,137.020 513.328,132.244 530.286,143.139 C 539.038,141.785 565.464,141.977 547.525,153.817 C 538.669,160.204 537.703,174.858 535.410,183.983 C 560.548,189.769 547.664,147.864 574.688,149.69 C 585.780,143.918 584.790,125.621 600,132.537 C 601.995,117.92 599.777,112.229 584.967,117.773 C 576.042,121.476 552.111,108.38 573.016,108.230 C 583.603,111.967 602.154,100.226 581.569,100.450 C 579.292,94.783 601.689,90.527 584.670,89.034 C 576.763,91.731 557.543,111.007 555.736,94.681 C 565.083,78.373 603.506,84.368 600,65 z"
             id="path5033" />
          <path
             style="fill:#17181f;"
             d="M 205.999,403.162 C 222.110,400.367 234.226,391.739 232.584,373.83 C 234.461,365.526 241.617,336.05 248.461,356.988 C 252.945,369.136 233.998,393.456 257.801,385.073 C 268.688,382.753 290.532,383.386 294.040,392.778 C 277.204,399.388 256.313,394.789 241.160,401.138 C 235.562,410.652 211.000,414.918 205.999,403.162 z"
             id="path7676" />
          <path
             style="fill:#17181f;"
             d="M 332.845,139.475 C 352.863,130.378 349.487,158.01 337.832,165.14 C 331.732,174.884 336.697,200.271 341.491,178.337 C 346.584,160.053 367.846,164.000 379.377,152.626 C 390.418,146.210 420.427,167.530 397.029,174.301 C 386.417,176.486 377.457,201.185 392.497,186.372 C 397.068,174.413 406.442,182.571 408.958,183.425 C 414.068,158.077 439.235,174.174 455.675,175.739 C 482.828,175.897 468.285,213.057 450.947,215.550 C 440.538,213.907 408.369,216.499 415.688,229.194 C 427.156,218.386 460.833,219.25 448.600,241.171 C 438.832,257.209 415.750,243.928 406.295,261.499 C 391.087,275.576 384.198,295.784 370.463,311.248 C 357.435,323.151 348.308,340.656 355.16,358.499 C 355.389,339.321 365.823,311.751 386.970,310.444 C 390.792,318.100 381.501,352.171 396.408,334.557 C 395.831,322.811 391.000,291.040 411.286,308.877 C 418.026,318.01 441.996,305.671 422.283,302.697 C 401.139,302.839 404.714,267.453 420.799,260.306 C 433.241,248.443 445.414,261.684 446.944,271.273 C 452.090,255.386 460.197,240.366 466.783,225.053 C 471.331,209.361 489.971,199.825 488.548,182.335 C 482.707,169.026 470.173,165.759 457.203,160.569 C 448.661,148.764 427.427,161.944 413.982,156.483 C 397.448,150.315 389.629,129.947 371.871,126.594 C 355.030,131.24 340.265,134.178 326.383,121.030 C 314.588,114.722 291.517,99.562 287.560,121.929 C 279.397,133.690 264.780,107.848 251.050,111.580 C 232.488,106.003 213.227,123.157 212.830,141.344 C 222.162,137.388 231.952,131.694 237.381,144.667 C 246.012,142.670 253.719,121.984 267.025,134.670 C 270.664,149.682 250.665,157.810 243.525,169.20 C 239.271,182.893 207.443,183.278 212.044,189.767 C 222.009,184.899 237.877,186.188 235.552,197.509 C 243.165,193.245 248.768,163.463 256.028,185.527 C 259.303,197.669 288.974,203.598 270.948,188.430 C 258.541,178.825 257.702,156.452 274.009,150.469 C 293.394,140.31 298.839,166.61 282.455,174.589 C 268.624,190.52 298.714,167.773 288.785,185.394 C 297.133,199.246 295.406,171.123 298.905,165.093 C 307.593,154.063 322.334,149.656 332.845,139.475 z"
             id="path7569" />
          <path
             style="fill:#17181f;"
             d="M 560.345,226.194 C 570.694,239.566 539.999,265.05 568.244,267.620 C 575.316,273.079 605.897,265.093 589.369,277.637 C 576.209,280.310 543.939,271.606 552.439,295.321 C 554.648,309.836 530.244,319.813 550.738,329.860 C 557.794,341.681 559.532,356.254 577.322,352.021 C 587.427,349.241 607.058,360.351 588.549,364.587 C 564.999,354.584 559.015,381.195 561.119,398.87 C 562.259,410.792 550.118,418.982 552.783,402.285 C 552.202,389.57 541.440,357.285 526.467,375.71 C 515.224,382.672 505.208,407.771 490.576,397.434 C 497.813,379.725 521.228,373.73 529.154,355.58 C 532.419,340.678 534.228,308.963 509.707,318.284 C 492.014,328.649 466.845,312.548 484.473,294.387 C 502.429,288.056 520.196,314.187 537.560,300.139 C 546.962,284.527 534.385,268.670 526.479,256.339 C 532.000,248.640 547.654,259.186 547.325,242.59 C 550.056,236.278 553.516,228.789 560.345,226.194 z"
             id="path7851" />
          <path
             style="fill:#17181f;"
             d="M -55.529,-47.117 C -46.847,-36.949 -63.249,-11.023 -39.965,-13.941 C -33.287,3.138 3.100,-19.203 6.667,7.749 C -5.992,13.522 -19.200,-5.973 -34.811,3.163 C -46.610,-0.387 -36.169,23.362 -51.061,11.757 C -42.695,27.198 -46.887,50.869 -67.774,52.935 C -84.797,48.901 -97.365,70.083 -110.259,67.709 C -120.803,52.397 -113.898,21.858 -91.193,27.681 C -76.723,29.255 -58.147,32.595 -65.560,11.62 C -66.480,0.487 -99.369,-14.114 -76.027,-17.707 C -62.994,-15.800 -70.688,-45.17 -55.529,-47.117 z"
             id="path7865" />
          <path
             style="fill:#17181f;"
             d="M -15.614,356.373 C -22.403,348.830 -23.847,321.532 -34.489,341.948 C -39.582,350.629 -72.942,356.794 -56.909,339.771 C -55.617,321.053 -79.360,353.510 -86.482,358.694 C -94.385,362.874 -115.117,390.635 -94.150,376.79 C -78.640,368.87 -85.083,396.030 -75.739,402.815 C -69.384,424.632 -74.873,371.691 -63.846,395.540 C -62.987,403.270 -53.017,420.966 -52.531,403.753 C -61.296,392.467 -72.899,371.944 -48.689,371.770 C -35.270,369.222 -35.187,352.828 -19.106,359.587 L -17.247,358.490 L -15.614,356.373 L -15.614,356.373 z"
             id="path5063" />
          <path
             style="fill:#17181f;"
             d="M 169.313,461.538 C 184.142,467.810 192.624,486.09 210.325,485.603 C 226.187,487.988 242.800,487.038 258.165,484.202 C 262.328,488.353 238.273,499.633 252.967,499.026 C 266.888,497.131 265.229,523.527 259.041,529.633 C 254.225,515.813 235.402,515.915 220.920,516.423 C 208.878,513.232 197.253,513.893 194.486,526.777 C 180.219,539.762 172.658,525.310 167.480,513.518 C 158.059,511.106 135.154,513.719 133.967,503.363 C 145.535,492.595 179.909,511.129 177.436,487.441 C 177.558,481.149 158.925,462.943 169.313,461.538 z"
             id="path5266" />
          <path
             style="fill:#17181f;"
             d="M -40.686,443.038 C -21.520,445.723 -2.097,465.144 -10.440,485.440 C -19.570,496.441 -29.373,509.947 -32.266,522.070 C -47.029,509.955 -22.895,492.764 -21.759,482.933 C -34.249,490.868 -43.020,472.218 -26.364,473.56 C -19.963,466.903 -46.450,470.498 -43.742,482.067 C -59.084,491.761 -55.148,462.129 -40.126,463.895 C -15.251,461.297 -52.618,451.196 -40.686,443.038 z"
             id="path5306" />
          <path
             style="fill:#17181f;"
             d="M 78.813,492.819 C 88.192,510.53 111.962,487.893 120.676,503.749 C 115.913,513.54 99.194,520.609 115.112,531.096 C 120.828,548.580 103.417,532.345 101.629,533.188 C 96.278,545.210 125.887,547.533 108.656,554.638 C 89.357,550.904 97.998,508.071 76.012,530.570 C 70.225,521.22 58.023,537.398 52.928,521.668 C 50.288,503.300 72.306,505.902 78.813,492.819 z"
             id="path5321" />
          <path
             style="fill:#17181f;"
             d="M 478.446,-72.782 C 478.183,-83.682 491.734,-106.253 470.272,-95.140 C 460.356,-92.706 432.833,-106.305 455.389,-110.775 C 466.313,-123.74 435.073,-114.252 428.140,-113.795 C 418.571,-110.672 394.611,-113.297 393.981,-103.344 C 405.837,-104.771 416.828,-97.845 405.269,-87.088 C 406.255,-78.639 394.458,-54.213 408.576,-70.884 C 423.592,-90.312 410.948,-56.836 413.971,-51.449 C 427.901,-56.316 416.009,-97.808 442.901,-79.639 C 454.725,-73.048 465.100,-88.276 473.503,-72.331 L 475.308,-71.998 L 478.446,-72.782 L 478.446,-72.782 z"
             id="path5609" />
          <path
             style="fill:#17181f;"
             d="M 54.288,1.417 C 47.103,-16.418 53.991,-42.708 75.519,-45.931 C 89.742,-42.596 107.710,-43.539 118.942,-44.488 C 113.542,-26.528 88.429,-39.100 79.536,-34.829 C 95.289,-18.824 75.016,-19.849 70.452,-26.339 C 69.373,-8.026 106.206,-21.882 90.647,-3.772 C 77.195,4.692 59.241,-31.932 61.536,-2.433 C 62.413,1.167 56.571,5.100 54.288,1.417 z"
             id="path5613" />
          <path
             style="fill:#17181f;"
             d="M 333.562,16.595 C 344.782,18.575 361.143,24.846 365.950,9.752 C 374.717,3.240 383.335,-14.773 394.142,-11.198 C 395.573,1.476 385.209,10.753 376.356,18.027 C 375.801,26.170 390.687,25.108 396.296,29.802 C 402.660,31.180 428.193,54.886 409.578,49.049 C 396.111,44.021 382.162,40.038 370.572,31.047 C 358.094,37.109 334.671,32.854 333.562,16.595 L 333.562,16.595 z"
             id="path5615" />
          <path
             style="fill:#17181f;"
             d="M 233.928,-120.424 C 245.534,-107.508 213.363,-81.435 241.722,-78.732 C 250.558,-74.717 282.707,-79.616 260.580,-67.054 C 246.867,-68.206 214.694,-73.649 225.859,-48.931 C 224.633,-36.963 203.816,-26.156 222.783,-16.286 C 232.365,-8.174 230.322,10.256 247.865,4.915 C 257.680,3.129 282.077,12.010 262.133,17.967 C 238.492,7.917 231.838,35.071 234.959,52.933 C 237.241,63.962 224.103,73.841 226.209,56.772 C 225.189,44.505 215.763,10.934 200.544,29.642 C 189.264,36.419 178.644,60.250 164.496,51.021 C 171.462,33.298 195.025,27.240 203.001,9.117 C 205.887,-5.488 207.926,-37.434 183.723,-28.335 C 166.085,-18.076 140.569,-34.025 158.052,-52.351 C 176.145,-58.517 193.816,-32.558 211.414,-46.558 C 221.270,-62.364 207.050,-78.044 200.081,-90.910 C 205.128,-98.126 221.297,-88.353 220.261,-104.204 C 222.832,-110.266 227.663,-118.374 233.928,-120.424 z"
             id="path5617" />
          <path
             style="fill:#17181f;"
             d="M 558.906,509.906 C 539.592,517.182 519.104,520.67 498.514,520.9 C 484.109,516.356 460.993,514.612 460.892,534.430 C 452.247,543.106 468.317,556.489 458.385,565.734 C 465.926,580.012 482.357,592.871 478.460,610.803 C 469.727,621.167 464.486,640.715 484.256,634.905 C 495.362,637.240 478.216,623.907 487.027,616.565 C 483.614,600.780 495.801,598.319 506.176,607.791 C 515.342,615.670 533.662,607.570 514.807,603.74 C 502.518,604.746 503.964,597.515 506.547,590.031 C 486.569,601.265 482.699,577.572 477.590,563.859 C 471.438,547.955 470.328,528.3 492.976,531.888 C 513.385,525.684 514.216,550.435 526.600,559.826 C 531.256,569.226 551.493,568.705 535.349,559.71 C 522.035,551.670 513.792,525.375 538.223,528.778 C 555.640,531.127 554.874,556.624 575.538,555.057 C 592.128,561.517 605.267,559.988 600,539.576 C 593.847,541.82 574.112,554.99 563.370,540.952 C 546.444,534.686 553.954,518.28 561.556,510.864 L 558.906,509.906 z"
             id="path5786" />
          <path
             style="fill:#17181f;"
             d="M 470,-165.094 C 463.359,-144.158 494.001,-138.293 491.066,-119.944 C 490.507,-103.773 485.828,-79.478 503.305,-72.742 C 507.168,-70.474 521.992,-83.950 516.537,-68.776 C 513.522,-49.912 516.709,-25.731 535.399,-16.125 C 551.003,-9.792 575.376,-17.042 550.519,-27.731 C 556.650,-39.723 554.212,-45.855 540.024,-45.090 C 517.107,-56.704 542.053,-73.859 556.967,-61.306 C 573.040,-58.242 589.202,-54.980 600,-41.393 C 598.833,-50.390 589.912,-57.816 600,-63.689 C 596.203,-69.665 564.345,-58.787 581.167,-76.241 C 589.536,-85.017 580.931,-114.73 576.330,-91.684 C 575.492,-72.620 547.328,-61.733 537.031,-80 C 526.038,-95.605 551.030,-102.009 561.031,-92.81 C 576.415,-92.302 545.527,-104.363 565.270,-105.191 C 572.972,-120.975 543.736,-98.314 536.033,-104.238 C 525.682,-116.525 494.984,-114.75 497.886,-135.0 C 511.721,-144.197 534.296,-130.717 545,-149.218 C 524.016,-142.21 503.022,-153.159 487.568,-165.094 C 481.712,-165.094 475.856,-165.094 470,-165.094 z"
             id="path5788" />
          <path
             style="fill:#17181f;"
             d="M -150,-65.906 C -152.530,-57.763 -143.633,-62.932 -150,-65.906 z M -150,-46.156 C -152.421,-34.897 -132.804,-34.567 -147.875,-44 L -150,-46.156 z"
             id="path5802" />
          <path
             style="fill:#17181f;"
             d="M -147.406,510.781 C -151.840,520.254 -137.880,532.329 -150,540.110 C -154.884,557.926 -144.674,562.675 -128.478,560.466 C -107.816,563.553 -83.737,572.708 -67.239,554.332 C -77.444,557.642 -101.176,566.010 -116.703,555.9 C -143.787,544.798 -83.651,538.706 -102.543,528.309 C -114.046,527.597 -140.500,557.889 -137.132,530.607 C -132.177,523.879 -142.212,513.819 -147.406,510.781 z"
             id="path5804" />
          <path
             style="fill:#17181f;"
             d="M 244.156,-165 C 239.392,-156.74 230.683,-124.441 249.357,-136.510 C 262.760,-140.958 248.694,-156.823 257.843,-165 C 253.281,-165 248.718,-165 244.156,-165 z M 282.25,-165 C 285.766,-157.48 302.910,-151.930 293.343,-165 C 289.645,-165 285.947,-165 282.25,-165 z"
             id="path5808" />
          <path
             style="fill:#17181f;"
             d="M -148.343,65 C -153.944,71.344 -147.949,79.819 -142.276,68.433 C -139.207,63.527 -146.000,65.357 -148.343,65 z M -121.125,106.218 C -133.686,114.03 -157.067,108.382 -150,130.332 C -146.282,135.359 -140.641,112.483 -129.789,122.651 C -115.702,136.795 -109.182,109.703 -121.125,106.218 z"
             id="path5818" />
        </g>
      </g>
    </pattern>
    <pattern
       inkscape:collect="always"
       xlink:href="#Camouflage"
       preserveAspectRatio="xMidYMid"
       id="pattern36"
       patternTransform="scale(0.2)" />
    <pattern
       inkscape:collect="always"
       xlink:href="#Camouflage"
       preserveAspectRatio="xMidYMid"
       id="pattern90"
       patternTransform="scale(0.2)" />
    <pattern
       inkscape:collect="always"
       xlink:href="#Camouflage"
       preserveAspectRatio="xMidYMid"
       id="pattern144"
       patternTransform="scale(0.2)" />
    <pattern
       inkscape:collect="always"
       xlink:href="#DecorativePaper"
       preserveAspectRatio="xMidYMid"
       id="pattern47"
       patternTransform="matrix(0.11915291,0,0,0.11915291,-93.25197,-118.5119)"
       x="0"
       y="0" />
    <pattern
       patternUnits="userSpaceOnUse"
       width="100"
       height="100"
       id="DecorativePaper"
       style="fill:#deb85f"
       inkscape:stockid="Decorative Paper"
       preserveAspectRatio="xMidYMid"
       patternTransform="scale(0.5,0.5)"
       inkscape:collect="always"
       inkscape:isstock="true"
       inkscape:label="Decorative Paper">
      <path
         id="path163941"
         style="opacity:1;fill-opacity:0.994819;stroke-width:1"
         inkscape:transform-center-x="-0.022809513"
         inkscape:transform-center-y="0.17213445"
         d="m 95.49805,0 c 0.2337,0.655687 1.33166,1.004203 1.73437,1.650391 l 0.002,0.0019 c 0.0425,0.01128 0.0803,0.0198 0.12305,0.03125 -0.0136,0.05056 -0.0274,0.09646 -0.041,0.146484 0.33338,0.766429 0.14131,1.975512 0.89062,2.279297 C 98.81461,4.355647 99.39115,3.738046 100,3.326122 V 0 Z m 1.81836,1.830078 c -0.0263,-0.06034 -0.0485,-0.123616 -0.082,-0.177734 -5.39503,-1.43204 -9.126682,-1.557222 -12.402348,0.333984 -4.330124,2.499998 -5.92927,5.732002 -7.027343,9.830078 4.098069,1.098079 9.063243,1.697264 12.527341,-0.302734 3.43205,-1.981503 5.52214,-4.326625 6.98438,-9.683594 z M 100,3.666016 C 96.44152,7.35613 94.63867,10.404321 94.63867,14 c 0,4.999995 2.00001,8.000013 5,11 0.12095,-0.120944 0.24058,-0.252824 0.36133,-0.376953 z m 0,71.001953 C 97.22825,77.581702 94.63867,81.285412 94.63867,85 c 0,3.956986 0.98357,6.93711 4.87696,10.87305 0.0495,0.0325 0.0999,0.061 0.14843,0.0996 C 99.78318,95.85337 99.88445,95.74091 100,95.62304 Z M 99.66406,95.97266 c -0.009,0.009 -0.0162,0.0182 -0.0254,0.0273 -0.043,-0.043 -0.0807,-0.0842 -0.12304,-0.12696 -0.22218,-0.1458 -0.45293,-0.23001 -0.71094,-0.16601 -0.84738,0.2102 -0.75052,1.62874 -1.3125,2.29687 -0.56199,0.66813 -1.97713,0.81665 -2.03906,1.6875 -0.008,0.11138 0.0106,0.21244 0.0449,0.3086 H 100 V 96.27535 C 99.88915,96.166 99.77708,96.06253 99.66406,95.97262 Z M 83.5,85.529297 c -1.704673,-0.0074 -3.402407,0.306702 -5.195312,0.787109 1.098075,4.098074 3.063245,8.697264 6.527343,10.697264 3.464096,2 6.561299,2.63403 12.025389,1.16992 C 95.39332,92.7195 93.63351,89.392441 90.33203,87.486328 87.896338,86.08008 85.691722,85.538783 83.5,85.529297 Z M 0.638672,74 C 0.424614,74.214058 0.212968,74.444092 0,74.667969 V 95.62305 C 3.746981,91.80072 5.638672,88.689684 5.638672,85 c 0,-4.999995 -2.000004,-8.000003 -5,-11 z m 15.332031,12.173828 c -2.186294,-0.03678 -4.293342,0.312503 -6.025391,1.3125 -3.454717,1.994583 -5.550106,4.354532 -7.013671,9.787112 0.182098,0.0273 0.35088,0.0716 0.486328,0.16601 5.188444,1.33602 8.830172,1.42011 12.027343,-0.42578 4.330122,-2.5 5.929273,-5.732 7.027344,-9.830076 -2.049035,-0.549037 -4.315658,-0.972987 -6.501953,-1.009766 z M 3.417969,97.43945 c -0.169265,-0.0436 -0.325421,-0.0768 -0.498047,-0.12304 0.004,-0.0148 0.0077,-0.0282 0.01172,-0.043 C 2.343505,97.18521 1.579644,97.34221 1.039064,97.12302 0.658911,96.96893 0.330006,96.60093 0,96.27539 V 100 H 3.017578 C 3.213131,99.19311 4.051132,98.33961 3.628906,97.66211 3.571186,97.56951 3.499814,97.49652 3.417969,97.43945 Z M 0,0 V 3.326172 C 0.200629,3.190434 0.405626,3.078197 0.615234,3.025391 c 0.0085,-0.0085 0.01493,-0.01688 0.02344,-0.02539 0.0064,0.0064 0.01121,0.01315 0.01758,0.01953 C 1.502169,2.836995 2.705571,3.514336 3.25977,2.855468 3.821753,2.187341 2.910716,1.095463 2.972656,0.224609 2.97796,0.150044 2.999266,0.075558 3.017578,0 Z m 0.65625,3.019531 c -0.01189,0.0026 -0.02537,9.93e-4 -0.03711,0.0039 -0.0014,3.4e-4 -0.0025,0.0016 -0.0039,0.002 C 0.396993,3.243908 0.206283,3.452101 0,3.666016 V 24.623047 C 2.874373,21.668176 5.638672,17.838737 5.638672,14 5.638672,10.006389 4.640295,7.009952 0.65625,3.019531 Z M 8.712891,0.015625 C 7.185226,0.013225 5.468957,0.26737 3.419922,0.816406 c 1.464098,5.464097 3.223909,8.791155 6.52539,10.697266 4.330119,2.499997 7.929269,2.267996 12.027344,1.169922 C 20.874579,8.585521 18.90941,3.986329 15.445312,1.986328 13.280254,0.736331 11.258999,0.019694 8.712891,0.015625 Z m 44.546711,52.839891 c -0.561988,0.668128 -1.792958,-0.04298 -2.640332,0.167217 -0.847373,0.210199 -1.603289,1.414175 -2.41238,1.086156 -0.809091,-0.328019 -0.513177,-1.718487 -0.974941,-2.459432 -0.461764,-0.740944 -1.840403,-1.087814 -1.778461,-1.958669 0.06194,-0.870855 1.475797,-1.019102 2.037785,-1.68723 0.561987,-0.668128 0.465857,-2.086481 1.31323,-2.29668 0.847374,-0.210199 1.42527,1.088647 2.234362,1.416666 0.809091,0.328019 2.128319,-0.201701 2.590082,0.539244 0.461764,0.740945 -0.594932,1.691923 -0.656874,2.562778 -0.06194,0.870855 0.849517,1.961822 0.287529,2.62995 z m 6.686643,8.657629 c 4.330123,2.5 7.928198,2.267947 12.026277,1.169872 -1.098078,-4.098077 -3.06218,-8.696152 -6.526281,-10.696155 -3.464097,-1.999997 -6.562176,-2.63397 -12.026275,-1.169872 1.4641,5.464102 3.224794,8.790042 6.526279,10.696155 z M 40.331514,37.486862 c -4.330126,-2.5 -7.928205,-2.267947 -12.026279,-1.169872 1.098077,4.098077 3.062179,8.696152 6.526281,10.696155 3.464099,2 6.562173,2.633975 12.026274,1.169872 -1.464102,-5.464102 -3.224797,-8.79004 -6.526276,-10.696155 z m 25.114727,9.526283 c 4.330126,-2.500003 5.928206,-5.732053 7.026278,-9.830128 -4.098074,-1.098075 -9.062173,-1.696152 -12.526274,0.303845 -3.464105,2.000003 -5.562179,4.366028 -7.026281,9.830128 5.464103,1.4641 9.2248,1.602267 12.526277,-0.303845 z m -30.614725,4.973717 c -4.330129,2.5 -5.928204,5.732053 -7.026279,9.830128 4.098074,1.09808 9.062173,1.696155 12.526277,-0.303845 3.464099,-2.000003 5.562171,-4.366025 7.026274,-9.830128 -5.464099,-1.464102 -9.224793,-1.602265 -12.526272,0.303845 z m 20.80736,-16.986857 c 0,-5 -2,-8 -4.999999,-11 -3,3 -5.999996,6.999997 -5.999996,11 0,4 0.999999,7 4.999996,11 3.999999,-4 5.999999,-7.187775 5.999999,-11 z m -10.999995,29 c 0,5 1.999999,8 4.999996,10.999999 3,-3 5.999999,-6.999999 5.999999,-10.999999 0,-4.000003 -1,-7.000003 -4.999999,-11 -3.999997,3.999997 -5.999996,7.187775 -5.999996,11 z m 6.361112,32.000005 a 3,3 0 0 0 3,3 3,3 0 0 0 3,-3 3,3 0 0 0 -3,-3 3,3 0 0 0 -3,3 z M 92.99998,54.000005 a 3,3 0 0 0 3,3 3,3 0 0 0 3,-3 3,3 0 0 0 -3,-3 3,3 0 0 0 -3,3 z m -6.999996,6.999997 a 3,3 0 0 0 3,3 3,3 0 0 0 3,-3 3,3 0 0 0 -3,-3 3,3 0 0 0 -3,3 z m -6.999995,7.000003 a 3,3 0 0 0 3,3 3,3 0 0 0 3,-3 3,3 0 0 0 -3,-3 3,3 0 0 0 -3,3 z m -7.000001,6.999997 a 3,3 0 0 0 3,3 3,3 0 0 0 3,-3 3,3 0 0 0 -3,-3 3,3 0 0 0 -3,3 z m -6.999999,7.000003 a 3,3 0 0 0 3,3 3,3 0 0 0 3,-3 3,3 0 0 0 -3,-3 3,3 0 0 0 -3,3 z m -6.999998,6.999997 A 3,3 0 0 0 60.999993,92 a 3,3 0 0 0 3,-3 3,3 0 0 0 -3,-3 3,3 0 0 0 -3,3 z m -56.999983,-43 a 3,3 0 0 0 3,3 3,3 0 0 0 3,-3 3,3 0 0 0 -3,-3 3,3 0 0 0 -3,3 z M 42.999995,4.000006 a 3,3 0 0 0 3,3 3,3 0 0 0 3,-3 3,3 0 0 0 -3,-3.000004 3,3 0 0 0 -3,3.000004 z m -6.999999,6.999998 a 3,3 0 0 0 3,3 3,3 0 0 0 3,-3 3,3 0 0 0 -3,-3 3,3 0 0 0 -3,3 z m -6.999995,6.999999 A 3,3 0 0 0 32,21.000002 a 3,3 0 0 0 3,-3 3,3 0 0 0 -3,-3 3,3 0 0 0 -3,3 z M 22,25.000005 a 3,3 0 0 0 3,3 3,3 0 0 0 3,-3 3,3 0 0 0 -3,-3 3,3 0 0 0 -3,3 z m -6.999997,6.999997 a 3,3 0 0 0 3,3 3,3 0 0 0 3,-3 3,3 0 0 0 -3,-3 3,3 0 0 0 -3,3 z m -6.999999,7.000003 a 3,3 0 0 0 3,3 3,3 0 0 0 3,-3 3,3 0 0 0 -3,-3 3,3 0 0 0 -3,3 z m 90.999976,6.999997 a 3,3 0 0 1 -3,3 3,3 0 0 1 -3,-3 3,3 0 0 1 3,-3 3,3 0 0 1 3,3 z M 56.999991,4.000006 a 3,3 0 0 1 -3,3 3,3 0 0 1 -3,-3 3,3 0 0 1 3,-3.000004 3,3 0 0 1 3,3.000004 z m 7.000001,6.999998 a 3,3 0 0 1 -3,3 3,3 0 0 1 -3,-3 3,3 0 0 1 3,-3 3,3 0 0 1 3,3 z m 6.999996,6.999999 a 3,3 0 0 1 -3,3 3,3 0 0 1 -3,-3 3,3 0 0 1 3,-3 3,3 0 0 1 3,3 z m 7.000001,7.000002 a 3,3 0 0 1 -3,3 3,3 0 0 1 -3,-3 3,3 0 0 1 3,-3 3,3 0 0 1 3,3 z m 6.999996,6.999997 a 3,3 0 0 1 -3,3 3,3 0 0 1 -3,-3 3,3 0 0 1 3,-3 3,3 0 0 1 3,3 z m 6.999995,7.000003 a 3,3 0 0 1 -3,3 3,3 0 0 1 -3,-3 3,3 0 0 1 3,-3 3,3 0 0 1 3,3 z M 48.999993,96.00001 a 3,3 0 0 1 -3,3 3,3 0 0 1 -3,-3 3,3 0 0 1 3,-3 3,3 0 0 1 3,3 z M 7.000004,54.000005 a 3,3 0 0 1 -3,3 3,3 0 0 1 -3,-3 3,3 0 0 1 3,-3 3,3 0 0 1 3,3 z m 7,6.999997 a 3,3 0 0 1 -3,3 3,3 0 0 1 -3,-3 3,3 0 0 1 3,-3 3,3 0 0 1 3,3 z M 21,68.000005 a 3,3 0 0 1 -3,3 3,3 0 0 1 -3,-3 3,3 0 0 1 3,-3 3,3 0 0 1 3,3 z m 7.000001,6.999998 A 3,3 0 0 1 24.999999,78.000002 3,3 0 0 1 22,75.000003 a 3,3 0 0 1 3,-3 3,3 0 0 1 3,3 z m 6.999996,7.000002 a 3,3 0 0 1 -3,3 3,3 0 0 1 -3,-3 3,3 0 0 1 3,-3 3,3 0 0 1 3,3 z m 6.999998,6.999997 A 3,3 0 0 1 38.999996,92 a 3,3 0 0 1 -3,-3 3,3 0 0 1 3,-3 3,3 0 0 1 3,3 z" />
    </pattern>
  </defs>
  <g
     inkscape:label="Layer 1"
     inkscape:groupmode="layer"
     id="layer1">
    <text
       xml:space="preserve"
       style="font-size:80.5819px;font-family:'Reem Kufi';-inkscape-font-specification:'Reem Kufi';text-align:start;writing-mode:lr-tb;direction:ltr;text-anchor:start;opacity:0.884328;fill:url(#linearGradient9);fill-opacity:1;stroke:none;stroke-width:0.379611;stroke-dasharray:none"
       x="81.485123"
       y="416.44894"
       id="text4"
       transform="scale(0.98763833,1.0125164)"><tspan
         sodipodi:role="line"
         id="tspan4"
         x="81.485123"
         y="416.44894"
         style="fill:url(#linearGradient9);stroke:none;stroke-width:0.379611;stroke-dasharray:none"> </tspan></text>
    <text
       xml:space="preserve"
       style="font-style:normal;font-variant:normal;font-weight:300;font-stretch:normal;font-size:27.6555px;font-family:'Helvetica Neue';-inkscape-font-specification:'Helvetica Neue Light';text-align:start;writing-mode:lr-tb;direction:ltr;text-anchor:start;fill:#d4a856;fill-opacity:1;stroke:none;stroke-width:0.615333;stroke-dasharray:none"
       x="149.64778"
       y="363.96405"
       id="text11"
       transform="scale(0.75821377,1.3188893)"><tspan
         sodipodi:role="line"
         id="tspan11"
         x="149.64778"
         y="363.96405"
         style="fill:#d4a856;fill-opacity:1;stroke-width:0.615333">Rukn-Al-Dyafa Hospitality Service</tspan></text>
    <path
       id="path15"
       style="opacity:0.884328;fill:#d4a856;fill-opacity:1;stroke-width:0.0366138"
       d="m 426.02241,465.65856 c -4.03642,-0.39277 -4.22646,6.79801 -5.7e-4,6.43102 l 34.924,-3.03314 z"
       sodipodi:nodetypes="sscs" />
    <path
       id="path17"
       style="opacity:0.884328;fill:#d4a856;fill-opacity:1;stroke-width:0.0366138"
       d="m 102.77165,472.76269 c 4.03645,0.39274 4.22649,-6.79803 6e-4,-6.43102 l -34.924,3.03311 z"
       sodipodi:nodetypes="sscs" />
    <path
       d="m 178.88878,70.537362 -1.52428,7.081541 1.45772,0.886423 q 0.61341,0.374973 1.21149,0.659886 0.58149,0.28134 1.27805,0.431245 1.62526,0.349838 2.1126,-1.349963 l 1.09455,0.235571 -1.52426,7.081566 -1.09455,-0.235571 q 0.0656,-0.627887 -0.19918,-1.170779 -0.26491,-0.542923 -0.81303,-1.059979 -0.54809,-0.517109 -1.63278,-1.201742 l -16.93669,-10.881645 0.95313,-4.428042 19.75253,-1.47477 q 1.32234,-0.09725 1.90661,-0.231598 0.56764,-0.138065 0.985,-0.464749 0.40077,-0.330189 0.70353,-1.011181 l 1.09458,0.23557 -1.97048,9.154581 -1.09457,-0.23557 q 0.0861,-0.883824 -0.20612,-1.380543 -0.2922,-0.49672 -0.98876,-0.646623 -0.51412,-0.110862 -1.1693,-0.130409 -0.65518,-0.01986 -1.67421,0.0386 z m -3.329,6.033689 1.28508,-5.970393 -9.90814,0.643778 z m 3.69433,-26.871931 0.14872,-0.17074 q -0.70477,-1.779149 -0.6591,-3.235063 0.0455,-1.45594 0.76396,-2.803225 0.48684,-0.913144 1.21619,-1.812358 l 4.13161,2.202749 -1.44456,2.709494 q -1.00391,-0.208336 -1.69143,-0.03662 -0.67954,0.156635 -1.04666,0.845343 -0.17544,0.32935 -0.18137,0.845272 -0.0124,0.492958 0.17765,1.036791 0.18361,0.520871 0.49309,0.878058 0.3024,0.334249 0.66767,0.586665 0.36526,0.252411 1.14369,0.667409 l 4.77531,2.545931 q 1.42211,0.758169 2.04684,0.956669 0.62469,0.198463 1.12164,0.05987 0.48194,-0.14673 1.01573,-0.823418 l 0.988,0.526735 -3.93459,7.380032 -0.98803,-0.526735 q 0.18856,-0.822308 0.0199,-1.259346 -0.16256,-0.452031 -0.65374,-0.829162 -0.48304,-0.392101 -1.90515,-1.150269 l -6.15254,-3.280173 q -1.10775,-0.590602 -1.65562,-0.825006 -0.55487,-0.257391 -0.94905,-0.275297 -0.40114,-0.04082 -0.75538,0.154648 -0.36121,0.172727 -0.89399,0.81142 l -1.01793,-0.542721 2.06699,-4.165506 1.00562,-1.886193 z m 22.28336,-10.152154 -0.23384,0.131157 q 0.068,1.942217 -0.37045,3.332041 -0.42708,1.377249 -1.42013,2.469099 -0.98159,1.079304 -2.10115,1.528663 -1.12068,0.425405 -2.20016,0.200421 -1.06804,-0.237557 -1.9842,-1.070815 -1.84485,-1.677874 -1.25544,-4.443858 0.5883,-2.789962 3.66795,-6.730788 l -1.19227,-1.084325 q -1.16714,-1.061513 -2.03436,-1.368664 -0.87974,-0.318563 -1.50741,-0.132626 -0.64021,0.174455 -1.16526,0.751761 -0.52506,0.577289 -0.71232,1.186619 -0.17593,0.596764 0.0807,1.449259 0.24398,0.841062 1.0871,1.905942 l -2.15727,2.371954 -2.28411,-2.077347 q 0.53554,-1.622592 0.9557,-2.639269 0.42019,-1.01665 0.9179,-1.916901 0.49659,-0.924231 0.95775,-1.582557 0.46116,-0.658327 0.99763,-1.248185 1.38111,-1.518568 2.60453,-2.056907 1.23482,-0.550911 2.54934,-0.180874 1.3145,0.370003 2.90834,1.819608 l 4.89452,4.451477 q 0.8283,0.75332 1.31435,1.126591 0.48606,0.373245 0.78045,0.5034 0.29322,0.106169 0.54542,0.106169 0.23976,-0.01238 0.48731,-0.107148 0.24645,-0.119757 0.82857,-0.507634 l 0.82829,0.75332 -4.24605,4.66861 z m -4.65623,-3.478055 q -1.71898,1.990889 -1.89733,3.548504 -0.16703,1.545093 1.13827,2.732159 0.77809,0.707666 1.58033,0.657633 0.78966,-0.06138 1.47452,-0.814463 0.52505,-0.577289 0.6918,-1.365797 0.15442,-0.799914 -0.0864,-1.56907 -0.24053,-0.76918 -0.81788,-1.294234 z m 3.80554,-17.627994 q -0.6356,-1.043026 -0.98557,-1.584682 -0.34993,-0.541633 -0.66953,-0.903124 -0.31963,-0.361467 -0.62022,-0.496151 -0.3006,-0.134841 -0.66412,-0.11184 -0.34904,0.01238 -1.03692,0.254426 l -0.58263,-0.956102 3.91812,-2.665793 1.78182,-1.085811 5.05836,8.300673 0.0222,0.0049 q 0.38363,-1.326401 0.77068,-2.158258 0.38705,-0.831836 0.97578,-1.528318 0.57991,-0.71098 1.4201,-1.223019 2.5786,-1.571347 4.98017,-0.531733 2.39279,1.025115 4.59975,4.646708 1.5272,2.506117 1.79229,4.668906 0.27072,2.139479 -0.71499,3.912246 -0.99455,1.758318 -3.19649,3.100135 -2.28886,1.394795 -4.68974,1.725555 l -0.5688,1.47895 -2.01316,0.869223 z m 10.88687,8.443894 q 1.08584,1.781798 2.21512,2.265725 1.13493,0.460619 2.42419,-0.325068 1.33276,-0.812162 1.18061,-2.626574 -0.1465,-1.837746 -1.72665,-4.43079 -1.73906,-2.853827 -3.21828,-3.879386 -1.47922,-1.02558 -2.79748,-0.222212 -0.6374,0.388416 -1.05729,1.101204 -0.41986,0.712787 -0.44587,1.582876 -0.0349,0.855589 0.41536,1.594409 z m 14.36418,-26.39416226 1.29859,3.94817296 -4.41552,1.4522788 -1.29855,-3.948176 z M 226.83699,23.85708 q 0.72074,-0.469205 0.89951,-0.903025 0.19475,-0.439114 0.1007,-1.051069 -0.078,-0.617227 -0.58155,-2.148139 l -2.4646,-7.493485 q -0.2597,-0.789619 -0.49927,-1.246549 -0.22345,-0.462277 -0.52837,-0.683445 -0.28879,-0.226415 -0.69104,-0.254887 -0.3914,-0.04997 -0.97641,0.01728 l -0.36041,-1.0958319 4.3892,-1.5864891 2.01437,-0.662533 3.76848,11.457741 q 0.29684,0.90243 0.47725,1.396701 0.19126,0.472865 0.32967,0.730927 0.13311,0.24199 0.28263,0.42491 0.16554,0.177678 0.36895,0.307252 0.20338,0.12966 0.52497,0.184356 0.32168,0.05492 0.80999,0.01986 l 0.34984,1.063566 -7.86412,2.586536 z m 23.11194,-8.192241 1.48469,1.411026 q -1.45688,1.814805 -2.92173,2.70798 -1.44999,0.874272 -3.26911,1.092296 -3.6551,0.438052 -5.83165,-1.470959 -2.17857,-1.925857 -2.66911,-6.018913 -0.33105,-2.762345 0.47304,-4.8919017 0.81892,-2.1484374 2.66649,-3.4120644 1.84556,-1.2805019 4.38895,-1.5853039 1.36434,-0.1635714 2.73604,-0.122722 1.38655,0.022165 2.53861,0.225437 l 0.48653,4.0593311 -3.33506,0.3996977 q -0.44243,-1.5530126 -1.03455,-2.2167338 -0.59211,-0.663722 -1.53537,-0.5506634 -0.62321,0.074736 -1.15754,0.4633411 -0.51951,0.369805 -0.86457,1.1970869 -0.33024,0.8084517 -0.42748,2.1356938 -0.0992,1.3103926 0.13709,3.2811146 0.23605,1.970697 0.77026,3.290641 0.53206,1.303066 1.44622,1.945286 0.91215,0.625362 2.25964,0.463854 0.97693,-0.117051 1.78548,-0.641101 0.82543,-0.526067 1.87328,-1.762224 z M 283.75094,2.7179943 282.51167,7.479004 280.27892,6.8978051 q 0.0891,-1.9577109 -0.53831,-3.0500301 -0.62295,-1.1087485 -2.00198,-1.4677172 -2.59391,-0.6751996 -4.57327,1.4740536 -1.97505,2.1328757 -3.24853,7.0251996 -1.18374,4.547534 -0.57995,7.21142 0.60804,2.647459 2.95569,3.258574 1.19846,0.311953 2.05622,0.114575 0.86202,-0.213778 1.51468,-0.902924 0.66909,-0.68478 1.37775,-2.060449 l 2.24914,0.585457 -1.29482,4.974401 q -1.917,-0.04307 -3.46224,-0.23508 -1.54528,-0.191756 -3.15413,-0.610646 -3.41476,-0.888893 -5.26134,-2.684253 -1.83012,-1.791102 -2.21913,-4.539318 -0.3683,-2.760365 0.62314,-6.5691305 0.92729,-3.5625326 2.80951,-5.8773292 1.90287,-2.3269393 4.62231,-3.14412522 2.71944,-0.81720344 5.98645,0.0331329 1.65812,0.43159444 2.95733,0.96260202 1.29921,0.531016 2.6535,1.3217748 z m 3.7491,27.4829927 q -2.13576,-1.287353 -3.24372,-2.965374 -1.08468,-1.683787 -0.96684,-3.851028 0.12643,-2.181769 1.65919,-4.724335 1.17348,-1.946866 2.56932,-3.046681 1.39578,-1.099819 2.91519,-1.451683 1.51938,-0.351867 3.10424,0.0098 1.60817,0.35528 3.16276,1.292353 3.51601,2.119311 4.18213,5.056179 0.67486,2.922368 -1.47949,6.496482 -1.52381,2.528042 -3.44346,3.708253 -1.9109,1.165711 -4.05186,1.004229 -2.14094,-0.161326 -4.40746,-1.527599 z m 2.0581,-9.198105 q -1.8566,3.080165 -2.10202,5.031833 -0.22221,1.945905 1.17264,2.786622 0.77002,0.464157 1.515,0.378392 0.75949,-0.07695 1.51124,-0.634076 0.76627,-0.548314 1.5188,-1.501074 0.76131,-0.967259 1.54071,-2.26033 1.88288,-3.123741 2.1138,-5.084169 0.25417,-1.96622 -1.09702,-2.780654 -0.98797,-0.595527 -1.96024,-0.329845 -0.97225,0.26574 -2.00145,1.348819 -1.02919,1.083086 -2.21146,3.044482 z m 8.29061,14.783175 q 0.73798,0.38406 1.15796,0.389332 0.43216,0.01727 0.8837,-0.25411 0.46334,-0.283358 1.36028,-1.209511 l 7.26986,-7.506747 -1.48674,-1.439805 0.81431,-0.840841 q 0.65539,0.469353 0.96915,0.584313 0.33773,0.114575 0.64919,0.08562 0.32329,-0.04108 0.68003,-0.238794 0.35674,-0.197714 0.81815,-0.600968 2.3193,-2.004697 4.83083,-1.745029 2.53554,0.259262 5.15558,2.796669 1.04803,1.014918 1.69928,1.976238 l -2.40754,2.486004 -1.65733,-1.605027 q 0.44193,-0.870881 0.49286,-1.435549 0.0631,-0.552889 -0.33902,-0.942342 -0.52402,-0.507485 -1.14656,-0.425505 -0.61072,0.06978 -1.34588,0.60943 -0.71118,0.539255 -1.83235,1.696949 l -0.89694,0.926162 2.35196,2.277726 -1.47521,1.523293 -2.35194,-2.277727 -7.26986,7.506724 q -0.88514,0.913962 -1.15349,1.386159 -0.2684,0.472173 -0.23708,0.92757 0.0436,0.467202 0.53555,1.227103 l -0.7789,0.804292 -6.06875,-5.877251 z m 8.10212,8.197095 q 0.66471,0.500284 1.07809,0.574566 0.42347,0.08783 0.91349,-0.105162 0.50365,-0.203155 1.54076,-0.969165 l 8.40602,-6.208161 -1.22956,-1.664807 0.94161,-0.69539 q 0.56919,0.570802 0.85977,0.735826 0.3143,0.168494 0.62628,0.191265 0.32561,0.01238 0.71001,-0.123729 0.38443,-0.136339 0.90592,-0.458143 2.61755,-1.595722 5.05213,-0.926309 2.45831,0.672974 4.62511,3.606874 0.86672,1.173582 1.35089,2.228957 l -2.7838,2.055941 -1.37062,-1.855883 q 0.5792,-0.786253 0.72237,-1.334865 0.15318,-0.534973 -0.17941,-0.985275 -0.43335,-0.586789 -1.0609,-0.608391 -0.61388,-0.03166 -1.42782,0.379656 -0.79024,0.414914 -2.0866,1.372302 l -1.03711,0.765965 1.94508,2.633675 -1.70576,1.259764 -1.94508,-2.633676 -8.40602,6.208135 q -1.02343,0.755845 -1.36584,1.177442 -0.34241,0.421594 -0.38648,0.875928 -0.0341,0.467967 0.32633,1.298514 l -0.90064,0.665144 -5.01892,-6.795768 z m 15.00701,22.592599 q -2.37759,-0.835322 -3.76511,-2.07445 -1.38753,-1.239128 -2.28471,-3.253724 -1.60804,-3.610809 -0.45431,-6.315922 1.17613,-2.696525 5.06586,-4.42881 2.5105,-1.11803 4.73772,-0.995693 2.24964,0.131157 3.94553,1.437009 1.71138,1.299182 2.7259,3.577232 0.62801,1.410211 0.7719,2.608932 0.15071,1.21421 -0.1,2.235835 -0.23531,1.014693 -0.83572,1.876371 -0.71405,1.023701 -1.83817,1.877139 -1.14821,0.882757 -2.96995,1.712638 l -4.37553,-9.825059 q -2.79804,1.264666 -3.69598,2.834502 -0.87556,1.578424 0.0222,3.593019 0.52451,1.177787 1.37941,1.929844 0.87041,0.745179 2.4762,1.348548 z m 4.62981,-7.075897 q 2.34345,-1.117907 3.25724,-2.1934 0.91383,-1.075516 0.36171,-2.315262 -0.53141,-1.193252 -2.05764,-1.367799 -1.51934,-0.15885 -3.8595,0.715981 z m -1.19162,26.087854 q -2.07012,-1.437161 -3.07843,-3.000493 -1.00831,-1.563301 -1.33783,-3.74388 -0.59063,-3.90829 1.24054,-6.209522 1.85046,-2.286982 6.06065,-2.923237 2.71736,-0.410657 4.832,0.299211 2.13394,0.724073 3.42171,2.433863 1.30461,1.707268 1.6772,4.173002 0.23062,1.526437 0.0507,2.720257 -0.17742,1.210653 -0.69052,2.128891 -0.49642,0.915694 -1.30432,1.586792 -0.96044,0.797109 -2.27095,1.321126 -1.34152,0.545886 -3.31828,0.861753 l -1.60711,-10.634574 q -3.03352,0.475588 -4.31637,1.750349 -1.26353,1.288962 -0.934,3.469563 0.1925,1.274817 0.81694,2.227026 0.64105,0.949695 2.02874,1.958131 z m 6.34381,-5.591036 q 2.55625,-0.454926 3.72303,-1.248904 1.16677,-0.793948 0.96397,-2.135868 -0.19524,-1.291583 -1.62012,-1.865458 -1.42244,-0.557095 -3.91101,-0.335435 z"
       id="text12"
       style="font-weight:bold;font-size:18.6667px;font-family:Cambria;-inkscape-font-specification:'Cambria Bold';fill:#edc865;fill-opacity:1;stroke:none;stroke-width:0.558367"
       aria-label="Arabic Coffee" />
    <path
       id="path16"
       style="fill:#edc865;fill-opacity:1;stroke:#ba8645;stroke-width:0.19168"
       d="m 176.81262,122.49027 c -1.99606,0.0369 -3.99541,0.14425 -5.9933,0.32989 -29.77978,2.76539 -53.69811,23.21574 -52.36552,24.7519 -0.23583,-2.48343 35.11267,-11.39849 52.71974,-8.10572 14.56951,2.72475 25.08037,6.95129 35.39198,16.01325 9.03002,7.93568 15.08254,18.46918 17.67554,25.26593 2.56272,6.71751 2.88436,18.25854 2.62006,25.98843 4.5632,-4.36673 8.9997,-6.45145 12.98524,-7.20295 0.002,-0.006 0.002,-0.009 0.005,-0.0144 0.27193,-3.13864 0.15168,-8.12261 3.2901,-8.11978 l 30.13267,0.0288 c 3.13837,0.002 4.72786,4.58503 4.73122,7.72338 -0.17345,-0.006 0.36718,4.39934 1.77868,10.73089 2.67173,-0.10134 5.4812,-0.32662 8.40238,-0.69307 -3.19001,-14.46992 -2.63524,-28.61145 -3.44867,-43.51817 l 14.80612,-1.34263 c 7.30894,-0.66207 7.92204,-12.38924 12.44436,-18.16913 3.99771,-5.10941 11.35463,-7.3737 19.36726,-7.44335 11.71075,-0.10171 24.81474,4.48883 30.85643,11.74873 12.96257,15.5763 6.80895,43.82692 -1.7531,56.91266 -9.26898,14.166 -21.44503,27.65188 -29.91401,38.36495 -8.60439,10.8843 -9.71853,19.46789 -9.85883,20.16645 -0.1168,0.58177 -0.25717,1.07283 -0.40663,1.5204 -0.0416,3.87345 0.002,7.7597 0.1267,11.65794 2.51314,-6.6291 4.78948,-12.9983 7.61084,-17.60776 21.39375,-34.95239 62.66126,-54.93936 46.38375,-108.21938 -4.26025,-13.94486 -28.17938,-25.89808 -43.92608,-26.28378 -9.57222,-0.23459 -23.83776,9.49633 -30.40759,14.75371 -1.82946,1.46398 -5.52615,3.67287 -6.62753,1.60477 -1.63865,-3.07686 2.85729,-8.48618 4.36423,-10.6529 1.02754,-1.47764 -1.33803,-6.54632 -1.38356,-6.57764 l -72.67898,0.89149 c -1.86583,1.84116 -1.80127,3.92197 0.1893,6.2452 l 66.53742,-1.14062 c -4.39618,3.07064 -9.89576,37.66638 -12.77682,37.66045 l -36.76022,-0.0728 c -4.01009,-0.009 0.43881,-22.83455 -25.26211,-37.67828 -11.12956,-6.42796 -24.88243,-9.7751 -38.85473,-9.51741 z" />
    <path
       d="m 307.09218,105.21624 c -0.69039,0.002 -1.35825,0.0473 -1.90655,0.0973 -2.32522,0.21181 -3.43226,1.54608 -4.64041,3.65581 -2.02194,3.53084 -0.27578,8.58787 -1.63291,8.58395 l -77.59821,-0.22368 c -0.65914,0.0173 -4.79099,-0.72234 -3.88853,3.85016 0.19969,0.79205 -0.19599,3.37691 4.89742,2.86816 l 76.05736,-0.82862 c 4.06166,-0.0443 2.29198,-0.48187 5.92937,1.24291 3.44428,1.63321 5.55334,0.94455 8.85247,-0.57157 3.9703,-1.82457 2.96919,-7.59493 0.46418,-7.4101 l -6.38714,0.47183 c -2.51104,0.18534 -1.01728,-3.31788 1.16748,-4.70562 3.66539,-2.32823 2.60094,-2.30181 2.86684,-5.02276 0.16182,-1.65644 -2.11021,-2.01583 -4.18137,-2.00756 z"
       style="fill:#edc865;fill-opacity:1;stroke:#ba8645;stroke-width:0.19168"
       id="path15-5" />
    <path
       d="m 256.93114,17.67609 c -1.06509,0.0098 -4.26512,2.317566 -4.37316,3.153308 -0.65499,5.066871 1.10326,4.826801 -1.06388,9.073691 -0.93306,1.842769 -4.09672,6.68365 -4.45245,9.83451 -0.83112,4.33592 2.46876,7.183092 3.91027,8.963726 0.84075,1.038501 -0.0737,8.708365 -0.16999,10.218121 -0.82867,12.976834 -29.76205,22.872435 -26.64564,53.747794 29.07948,-0.0123 37.16931,-0.002 66.08347,-0.48207 3.86362,-28.240275 -27.21279,-42.266815 -27.31827,-53.116116 l -0.0997,-10.247546 c -0.0248,-2.430969 3.83534,-2.991084 2.94614,-8.843518 -0.18755,-2.876195 -2.84561,-8.097324 -3.91538,-9.962387 -2.46015,-4.289006 -0.20984,-5.844589 -1.11887,-9.306414 -0.4533,-0.710389 -2.71731,-3.043616 -3.78242,-3.033099 z m 0.50892,49.531933 c 0.35012,0 0.69011,0.168523 1.02041,0.505084 11.88988,11.971514 25.72444,23.692661 25.62781,39.743423 l -53.33095,-0.0124 c 0.59117,-17.281575 13.57545,-28.802438 25.60224,-39.731917 0.36991,-0.336672 0.73038,-0.505083 1.08049,-0.505083 z m 49.65212,38.008217 c 2.07116,-0.008 4.34325,0.35112 4.18137,2.00757 -0.26591,2.72095 0.79855,2.69452 -2.86684,5.02275 -2.18476,1.38774 -3.67852,4.89088 -1.16748,4.70562 l 6.38714,-0.47183 c 2.50501,-0.18484 3.50612,5.58553 -0.46418,7.4101 -3.29913,1.51613 -5.40819,2.20479 -8.85247,0.57158 -3.63739,-1.72479 -1.86771,-1.28716 -5.92937,-1.24292 l -76.05736,0.82862 c -5.09343,0.50875 -4.69766,-2.0761 -4.89742,-2.86816 -0.90246,-4.5725 3.22939,-3.83289 3.88853,-3.85015 l 77.59821,0.22368 c 1.35711,0.005 -0.38903,-5.05312 1.63291,-8.58395 1.20815,-2.10974 2.31519,-3.44391 4.64041,-3.65582 0.5483,-0.05 1.21616,-0.0945 1.90655,-0.0972 z"
       style="opacity:0.884328;fill:#edc865;fill-opacity:1;stroke:#ba8645;stroke-width:0.19168"
       id="path13" />
    <path
       style="fill:url(#pattern47);fill-opacity:1;stroke:none;stroke-width:0.199028;stroke-dasharray:none;stroke-opacity:1"
       d="m 230.86029,107.44514 53.22799,0.0123 c 0.0965,-16.019874 -13.71137,-27.719 -25.57837,-39.667477 -0.65933,-0.672058 -1.35822,-0.672058 -2.09659,0 -12.00366,10.908416 -24.96302,22.407633 -25.55305,39.655947 z"
       id="path46"
       sodipodi:nodetypes="ccccc" />
    <g
       id="g37"
       transform="matrix(4.337217,0,0,4.337217,-125.52125,-138.15908)"
       style="fill:#edc865;fill-opacity:1">
      <path
         id="path36"
         style="font-size:5.87045px;font-family:'Foda Free Font';-inkscape-font-specification:'Foda Free Font';fill:#edc865;fill-opacity:1;stroke-width:4.72607"
         d="m 88.660167,106.06867 1.058446,-0.70768 0.95383,1.41537 -1.415364,0.95383 -0.479991,-0.71384 -1.058446,0.71384 -0.94768,-1.41536 1.415364,-0.95384 z m 5.493286,-9.432717 -1.354354,0.912718 -0.912718,-1.354354 1.360242,-0.912718 z m 6.292257,-7.741446 v 1.477875 c -0.12192,-0.0066 -0.23725,-0.01813 -0.34599,-0.0346 0.007,0.112035 0.26316,0.444002 0.27956,0.621941 0.16455,0.442371 0.84177,1.300202 1.60753,2.882711 0.74141,1.532188 0.0802,3.95851 0.0967,4.248483 -0.17177,0.483939 -0.51785,1.045582 -0.59661,1.34339 -0.21186,0.271146 -0.90018,1.640293 -1.27142,1.934693 0.18453,-0.0758 0.41996,-2.508511 0.43973,-2.9237 0.0734,-0.434537 0.16682,-1.46218 0.14776,-1.968589 -0.0333,-0.884957 -0.48887,-1.864068 -0.66351,-2.251805 -0.201604,-0.447597 -1.659352,-2.826702 -1.679321,-2.810727 -0.484326,-0.899319 -0.825275,-1.092362 -1.088717,-1.384014 -0.31634,-0.372352 -0.505815,-0.818845 -0.568422,-1.339479 -0.03627,-0.418484 0.06753,-0.77436 0.311392,-1.067628 0.24385,-0.293269 1.186492,-0.553221 1.604972,-0.523564 -0.12521,-0.01318 -0.25372,0 -0.38553,0.03954 -0.12851,0.03625 -0.23725,0.100502 -0.32622,0.192766 -0.089,0.09226 -0.13345,0.209242 -0.13345,0.350933 0,0.131806 0.0461,0.255374 0.13839,0.370705 0.167949,0.204866 0.297157,0.399714 0.60302,0.548642 0.380666,0.270021 0.9764,0.324202 1.830136,0.292427 z m -2.664347,4.77844 v 0 1.477875 c -0.06261,-0.0033 -0.123568,-0.0099 -0.182883,-0.01977 0.04613,0.260317 1.550497,2.502297 2.107079,3.857672 0.134461,0.327437 0.292831,0.674743 0.292831,1.020736 0,0.34269 -0.02801,0.6755 -0.08403,0.99843 -0.05602,0.32292 -0.151579,0.61454 -0.286678,0.87486 -0.131806,0.25702 -0.311392,0.46297 -0.538757,0.61784 -0.199867,0.17142 -0.444311,0.34247 -0.73333,0.51315 -0.359464,0.21055 -0.738782,0.38041 -1.137953,0.50959 l 0.749877,-2.61377 c 0.633133,-0.47882 0.323257,-0.51426 0.27267,-1.0968 -0.322925,-0.995135 -1.870801,-4.742669 -2.025673,-5.418174 -0.289973,-0.365762 -0.462968,-0.792484 -0.518986,-1.280166 -0.03625,-0.418484 0.06755,-0.77436 0.311392,-1.067628 0.243841,-0.293269 0.575004,-0.425075 0.993488,-0.395418 -0.125216,-0.01318 -0.253727,0 -0.385533,0.03954 -0.128511,0.03954 -0.237251,0.105443 -0.32622,0.197709 -0.08897,0.08897 -0.133453,0.204299 -0.133453,0.34599 0,0.135101 0.04613,0.25867 0.138396,0.370705 0.171348,0.204299 0.372352,0.38718 0.603012,0.548642 0.230661,0.158167 0.43496,0.285031 0.612898,0.38059 z m 0.186156,7.236613 -0.749877,2.61377 c -1.217826,0.3673 -2.46724,0.58694 -3.71985,0.79164 -0.489142,-0.3934 -0.753752,-0.93649 -1.03065,-1.47139 l -0.680212,-1.49481 -0.248392,1.91867 c -0.0033,0.0165 -0.0066,0.0329 -0.0099,0.0494 -0.05272,0.20101 -0.136746,0.39707 -0.252079,0.58819 -0.112035,0.18782 -0.313782,0.48887 -0.511491,0.61409 -0.194414,0.12192 -0.395374,0.13139 -0.698528,0.13139 l -0.04486,-1.88906 c 0.36476,-0.0395 0.659983,-0.01 0.868746,-0.0732 0.234021,-0.0714 0.362706,-0.19004 0.461565,-0.38445 0.09886,-0.19441 0.237455,-0.62233 0.434938,-0.95507 l 0.913092,1.00209 c 0,0 0.599135,-1.53189 1.058303,-2.20589 0.386524,-0.567365 0.836848,-1.21031 1.401986,-1.508699 0.497567,-0.21748 1.02799,-0.158748 1.436589,-5.81e-4 0.411894,0.158167 0.770291,0.690045 0.964704,1.131595 0.194414,0.441545 0.182457,0.703955 0.03418,1.343215 z m -4.442937,0.34844 -0.824556,1.09282 c 0.07468,0.0309 0.188329,0.1159 0.335308,0.10209 0.829033,-0.0779 2.381075,-0.40735 3.414469,-0.7772 l -0.212826,-0.50948 -0.222422,-0.50416 c -0.10874,-0.18453 -0.265802,-0.57334 -0.478863,-0.697214 -0.212032,-0.123276 -0.455562,-0.147373 -0.840845,0.109034 -0.338529,0.22529 -0.728617,0.61999 -1.170265,1.18411 z m -3.698382,1.5189 0.195481,-0.0155 0.04486,1.88911 c -0.21748,0 -0.384766,-0.14241 -0.529752,-0.24129 -0.141692,-0.10215 -0.257022,-0.23066 -0.345991,-0.38553 -0.08897,-0.15817 -0.159815,-0.32457 -0.212537,-0.49922 -0.04943,-0.17793 -0.158526,-0.65712 -0.191474,-0.81529 -0.02965,-0.15817 -0.06096,-0.28668 -0.09391,-0.38554 0.01318,0.19771 0.0082,0.40696 -0.01483,0.62773 -0.01977,0.22077 -0.0095,0.74116 -0.10509,0.93887 -0.09556,0.19441 -0.245489,0.35423 -0.449788,0.47944 -0.201004,0.12521 -0.489913,0.32196 -0.842115,0.3056 l -1.119607,-0.052 -0.02396,-1.71637 h 1.235681 c 0.184529,0 0.341048,-0.0231 0.469559,-0.0692 0.128511,-0.0461 0.235604,-0.1071 0.321277,-0.18289 0.08567,-0.0758 0.153225,-0.15816 0.202652,-0.24713 0.05272,-0.089 0.09226,-0.17794 0.118625,-0.26691 0.02636,-0.0923 0.04613,-0.17629 0.05931,-0.25208 0.01318,-0.0758 0.02307,-0.13675 0.02966,-0.18288 0.0066,-0.0461 0.01649,-0.0692 0.02966,-0.0692 0.01318,-0.003 0.03295,0.023 0.05931,0.0791 0.02965,0.0659 0.07414,0.16307 0.133453,0.29162 0.06261,0.12522 0.140043,0.25703 0.232308,0.39542 0.09556,0.13839 0.209242,0.25702 0.341048,0.35588 0.09382,0.0599 0.456221,0.0182 0.456221,0.0182 z m -4.876018,0.0369 v 0 l 1.231739,0.0932 0.02397,1.71637 c -0.345991,0 -0.60185,-0.11972 -0.792969,-0.27462 -0.191119,-0.15817 -0.30156,-0.38755 -0.393824,-0.64128 -0.09226,-0.25703 -0.15652,-0.53712 -0.192766,-0.84027 -0.03625,-0.30315 -0.0692,-0.60466 -0.09886,-0.90452 -0.04613,-0.43167 0.02591,-2.773596 -0.02681,-3.366723 0.006,-0.208183 -0.02076,-0.416366 -0.08024,-0.624549 l -0.239748,0.134101 -0.06808,-1.563566 c 0.619419,-0.191051 1.63472,-1.606825 1.576825,-2.214159 0.01004,-0.500729 -0.225422,-0.837787 -0.706394,-1.011173 0.923161,0.133214 2.382588,2.342679 0.787915,3.974463 -0.07579,0.731523 -0.18288,1.403734 -0.321277,2.016631 -0.135101,0.612901 -0.449696,2.627215 -0.565022,3.006165 z m -1.175154,-4.790825 v 0 l 0.0893,0.164841 c 0.06476,0.109324 0.126508,0.263933 0.185245,0.463827 0.06106,0.197 0.07881,0.470593 0.08882,0.708347 0.01268,0.301198 -0.006,0.603755 -0.03669,0.90365 -0.04589,0.44791 -0.05089,0.91545 -0.220001,1.33274 -0.189741,0.46819 -0.61771,1.05194 -0.863809,1.24527 -0.246097,0.19333 -0.522024,0.35553 -0.82778,0.48658 -0.305752,0.13105 -0.634312,0.21038 -0.985679,0.238 -0.346138,0.027 -0.76122,0.0533 -1.141271,-0.0614 l -1.261219,-0.4876 -0.926088,-0.57538 1.340342,-1.54638 c 0.278799,0.20487 0.598678,0.40302 0.959637,0.59447 0.586874,0.31127 0.513362,0.23868 0.798138,0.3727 0.320791,0.12912 0.916181,0.33694 1.022752,0.26888 0.525507,-0.24356 0.805113,-0.69179 1.017704,-1.2135 -0.118819,0.14777 -0.296502,0.26492 -0.533048,0.35144 -0.23365,0.0888 -0.488922,0.12463 -0.765815,0.1074 -0.276937,-0.0175 -0.533948,-0.10724 -0.771034,-0.26932 -0.33561,-0.24122 -0.512291,-0.5288 -0.530044,-0.86274 -0.01486,-0.33159 0.181651,-0.66498 0.589534,-1.00017 0.32633,-0.233787 0.703113,-0.441314 1.13035,-0.622581 0.427238,-0.18127 0.806772,-0.326948 1.138601,-0.437034 z m -1.39326,2.329075 c 0.197091,0.13462 0.353647,0.22472 0.469668,0.27029 l 0.178381,0.0719 -0.09056,-0.35908 c -0.06037,-0.23938 -0.164214,-0.51371 -0.311522,-0.82299 -0.122538,-0.22735 -0.242864,-0.40997 -0.360979,-0.547876 l -0.01102,-0.02094 -0.153415,0.04838 c -0.09937,0.0346 -0.197649,0.09155 -0.29482,0.170849 -0.09717,0.07933 -0.201111,0.167796 -0.21363,0.296066 0.172859,0.46839 0.375939,0.625761 0.787901,0.893411 z m -3.202481,-0.969056 v 0 c -0.309749,0.337761 -0.482901,0.618376 -0.519458,0.841836 -0.03132,0.2229 0.22605,0.40504 0.556365,0.67064 l -1.340342,1.54637 c -0.304243,-0.24464 -0.430246,-0.52379 -0.495674,-0.83402 -0.0602,-0.3108 0.209782,-0.92168 0.35683,-1.22327 0.14997,-0.29925 0.391017,-0.563439 0.723142,-0.792561 -0.57644,0.171031 -1.087362,0.263544 -1.532766,0.277537 -0.442507,0.01633 -0.823899,-0.02556 -1.144178,-0.125653 -0.317949,-0.102978 -0.327946,-0.05592 -0.439596,-0.307393 l -0.286042,-0.64425 c -0.07907,-0.192398 -0.217514,-0.491733 -0.228067,-0.686279 l -0.108457,-0.450777 -0.06098,-0.342697 -0.02204,-0.158813 2.681323,-1.215073 c 1.463879,0.826225 3.672249,0.08426 3.875576,-1.544497 0.0016,0.01567 -0.009,0.08823 -0.0319,0.217669 -0.114409,0.645837 0.01648,1.95528 -0.645685,2.510277 -0.845475,0.708635 -2.749934,0.824311 -3.299938,0.251651 -0.236285,-0.252015 -0.341809,-0.315459 -0.360522,-0.529807 l -0.03186,-0.364944 0.0082,0.185541 c 0.0107,0.12313 -0.0042,0.289431 0.06843,0.495744 0,0 0.08663,0.403272 0.153492,0.67185 0.05502,0.221032 0.33042,1.432332 1.486498,1.560587 0.195056,0.01848 0.350086,0.02145 0.46509,0.0089 z m -0.25611,-5.006186 -0.81555,0.548642 -0.766122,-1.136826 1.136827,-0.766123 0.370704,0.548643 0.81555,-0.548643 0.766122,1.136827 -1.136827,0.766122 z M 94.775333,80.461676 v 0 l 0.218763,0.149599 0.590532,0.273304 0.576245,1.825474 0.394856,0.975959 0.361105,0.776751 0.407424,0.816858 c 0.06455,0.608981 -1.600528,2.231262 -1.957357,2.557112 -0.356829,0.325851 -2.930534,1.631793 -3.392151,1.687108 -0.01591,0.0094 -0.06859,0.01878 -0.158017,0.02816 -0.08937,0.01252 -0.2091,0.02503 -0.359147,0.03755 -0.146847,0.01252 -0.319235,0.02659 -0.517164,0.04223 -0.201119,0.01564 -0.421399,0.03129 -0.66082,0.04693 -0.242621,0.01877 -0.498013,0.03755 -0.766175,0.05632 -0.271353,0.01877 -0.550686,0.03911 -0.837999,0.06101 -0.290504,0.02191 -0.584207,0.0438 -0.881091,0.06571 -0.300084,0.02191 -0.596977,0.0438 -0.890681,0.06571 -0.296884,0.02503 -0.587397,0.05007 -0.87152,0.07509 0.462892,-0.03441 0.949734,-0.09074 1.460517,-0.168958 0.679981,-0.122026 1.281725,-0.331039 1.905848,-0.549116 0.691748,-0.241706 1.394567,-0.477472 2.031717,-0.83938 1.350496,-0.767097 3.923855,-1.689467 3.733563,-2.78765 -0.190292,-1.098183 -1.088189,-2.964295 -1.07066,-2.954998 l -0.50842,-0.269652 z M 89.538245,82.1866 v 0 c 0.07024,0.01564 0.186758,0.03911 0.349566,0.0704 0.162817,0.03129 0.351166,0.07509 0.565056,0.131412 0.21389,0.05632 0.432569,0.129848 0.65603,0.220586 0.22347,0.08761 0.430979,0.198682 0.622519,0.333223 0.194738,0.131412 0.351165,0.28942 0.469281,0.474024 0.121306,0.181473 0.181959,0.394236 0.181959,0.638287 0,0.278469 -0.05268,0.500618 -0.158018,0.666449 -0.102154,0.16583 -0.23464,0.292549 -0.397457,0.380156 -0.162808,0.08448 -0.335196,0.142364 -0.517164,0.173652 -0.181959,0.02816 -0.354347,0.04223 -0.517164,0.04223 -0.159618,-0.0032 -0.288913,-0.0047 -0.387878,-0.0047 h -4.194784 v -1.26719 h 5.933043 l -5.727133,-0.779087 0.512374,-1.586335 c 0.108544,-0.300371 0.308073,-0.542858 0.598577,-0.727461 0.293694,-0.187732 0.614529,-0.330095 0.962495,-0.42709 0.347966,-0.09699 0.65923,-0.164265 0.933773,-0.201812 0.277742,-0.04068 0.456511,-0.06414 0.536324,-0.0704 0.501203,-0.07823 0.885881,-0.20807 1.154043,-0.389544 0.271353,-0.184603 0.438951,-0.38485 0.502803,-0.600742 0.06703,-0.21902 0.04312,-0.416139 -0.0718,-0.591355 0.0064,0.0094 0.03834,0.06884 0.09577,0.178345 0.06068,0.106381 0.124524,0.245616 0.191539,0.417704 0.07024,0.172088 0.121315,0.361384 0.153237,0.567888 0.03512,0.203376 0.03034,0.408318 -0.01434,0.614822 -0.04147,0.203376 -0.145247,0.392673 -0.311254,0.567889 -0.165998,0.175216 -0.41341,0.319144 -0.742225,0.431783 -0.274543,0.07823 -0.617728,0.11264 -1.029547,0.103253 -0.408628,-0.01252 -0.825228,-0.03129 -1.249817,-0.05632 -0.42139,-0.02503 -0.786917,-0.01721 -1.096581,0.02346 -0.309664,0.03755 -0.501203,0.143928 -0.574627,0.319145 0.379888,0.0438 0.812458,0.0923 1.2977,0.145492 0.488433,0.05006 0.913022,0.11733 1.273759,0.201812 z m -3.289742,1.863239 v 1.271883 c -0.143657,0 -0.301684,-0.01407 -0.474072,-0.04223 -0.172388,-0.03129 -0.344776,-0.08761 -0.517164,-0.168959 l -0.359146,1.267191 c -0.322425,0.262824 -0.697532,0.472458 -1.125312,0.628901 -0.42778,0.159572 -0.908232,0.239358 -1.441357,0.239358 -0.472471,0 -0.89068,-0.114203 -1.254607,-0.34261 -0.363927,-0.225279 -0.76188,-0.497519 -0.943848,-0.863596 -0.178778,-0.362948 -0.38249,-0.788915 -0.321837,-1.21757 l 0.69774,-1.761449 c 0.360737,-0.416139 2.414541,-0.481162 3.139205,-0.809693 -0.466091,0.316015 -0.780536,0.714946 -0.943343,1.196791 -0.162817,0.481844 -0.30845,1.365356 -0.155192,1.794011 0.102753,0.213655 0.700438,0.490181 0.773216,0.484912 1.024757,-0.0032 1.527483,-0.0061 1.900991,-0.635024 -0.185159,-0.09074 -0.354357,-0.225278 -0.507593,-0.403623 -0.153237,-0.178345 -0.272944,-0.409882 -0.359137,-0.694608 l 0.555475,-1.412682 c 0.01278,0.240922 0.07659,0.474023 0.191539,0.699301 0.118116,0.222149 0.274543,0.406752 0.469282,0.553809 0.197929,0.143928 0.422989,0.215891 0.675191,0.215891 z m -0.833408,-4.514087 -1.106161,0.72746 -0.737434,-1.08415 1.10137,-0.722768 z"
         sodipodi:nodetypes="ccccccccccccccccccsccccsscccscccscccccccassccccccccscccsccccccccccccccccsccsccsccccscccssccccccccccccsccsssccsscccccccccccccscccccccccccccccaaasscccccsczccccccscccccsccccccsccccccccccsccccccccscscccscccccccccccccccccccczccccccccccccaazccccsscccsccccsccccccscccccccccsccccccccccccccscccccscscscccccccccccc" />
    </g>
  </g>
</svg>
